<?xml version="1.0" encoding="utf-8" standalone="no"?>
<!DOCTYPE svg PUBLIC "-//W3C//DTD SVG 1.1//EN"
  "http://www.w3.org/Graphics/SVG/1.1/DTD/svg11.dtd">
<svg height="282pt" version="1.1" viewBox="0 0 451 282" width="451pt" xmlns="http://www.w3.org/2000/svg" xmlns:xlink="http://www.w3.org/1999/xlink">
 <metadata>
  <rdf:RDF xmlns:cc="http://creativecommons.org/ns#" xmlns:dc="http://purl.org/dc/elements/1.1/" xmlns:rdf="http://www.w3.org/1999/02/22-rdf-syntax-ns#">
   <cc:Work>
    <dc:type rdf:resource="http://purl.org/dc/dcmitype/StillImage"/>
    <dc:date>2022-02-04T11:15:17.148013</dc:date>
    <dc:format>image/svg+xml</dc:format>
    <dc:creator>
     <cc:Agent>
      <dc:title>Matplotlib v3.4.3, https://matplotlib.org/</dc:title>
     </cc:Agent>
    </dc:creator>
   </cc:Work>
  </rdf:RDF>
 </metadata>
 <defs>
  <style type="text/css">*{stroke-linecap:butt;stroke-linejoin:round;}</style>
 </defs>
 <g id="figure_1">
  <g id="patch_1">
   <path d="M 0 282 
L 451 282 
L 451 0 
L 0 0 
z
" style="fill:#f0f0f0;"/>
  </g>
  <g id="axes_1">
   <g id="patch_2">
    <path d="M 30.0725 243.895 
L 435.88 243.895 
L 435.88 28.718437 
L 30.0725 28.718437 
z
" style="fill:#f0f0f0;"/>
   </g>
   <g id="matplotlib.axis_1">
    <g id="xtick_1">
     <g id="line2d_1">
      <path clip-path="url(#pd1c14922a6)" d="M 30.0725 243.895 
L 30.0725 28.718437 
" style="fill:none;stroke:#cbcbcb;"/>
     </g>
     <g id="line2d_2"/>
    </g>
    <g id="xtick_2">
     <g id="line2d_3">
      <path clip-path="url(#pd1c14922a6)" d="M 46.425671 243.895 
L 46.425671 28.718437 
" style="fill:none;stroke:#cbcbcb;"/>
     </g>
     <g id="line2d_4"/>
     <g id="text_1">
      <!-- 1960 -->
      <g transform="translate(38.790671 251.954063)scale(0.06 -0.06)">
       <defs>
        <path d="M 794 531 
L 1825 531 
L 1825 4091 
L 703 3866 
L 703 4441 
L 1819 4666 
L 2450 4666 
L 2450 531 
L 3481 531 
L 3481 0 
L 794 0 
L 794 531 
z
" id="DejaVuSans-31" transform="scale(0.015625)"/>
        <path d="M 703 97 
L 703 672 
Q 941 559 1184 500 
Q 1428 441 1663 441 
Q 2288 441 2617 861 
Q 2947 1281 2994 2138 
Q 2813 1869 2534 1725 
Q 2256 1581 1919 1581 
Q 1219 1581 811 2004 
Q 403 2428 403 3163 
Q 403 3881 828 4315 
Q 1253 4750 1959 4750 
Q 2769 4750 3195 4129 
Q 3622 3509 3622 2328 
Q 3622 1225 3098 567 
Q 2575 -91 1691 -91 
Q 1453 -91 1209 -44 
Q 966 3 703 97 
z
M 1959 2075 
Q 2384 2075 2632 2365 
Q 2881 2656 2881 3163 
Q 2881 3666 2632 3958 
Q 2384 4250 1959 4250 
Q 1534 4250 1286 3958 
Q 1038 3666 1038 3163 
Q 1038 2656 1286 2365 
Q 1534 2075 1959 2075 
z
" id="DejaVuSans-39" transform="scale(0.015625)"/>
        <path d="M 2113 2584 
Q 1688 2584 1439 2293 
Q 1191 2003 1191 1497 
Q 1191 994 1439 701 
Q 1688 409 2113 409 
Q 2538 409 2786 701 
Q 3034 994 3034 1497 
Q 3034 2003 2786 2293 
Q 2538 2584 2113 2584 
z
M 3366 4563 
L 3366 3988 
Q 3128 4100 2886 4159 
Q 2644 4219 2406 4219 
Q 1781 4219 1451 3797 
Q 1122 3375 1075 2522 
Q 1259 2794 1537 2939 
Q 1816 3084 2150 3084 
Q 2853 3084 3261 2657 
Q 3669 2231 3669 1497 
Q 3669 778 3244 343 
Q 2819 -91 2113 -91 
Q 1303 -91 875 529 
Q 447 1150 447 2328 
Q 447 3434 972 4092 
Q 1497 4750 2381 4750 
Q 2619 4750 2861 4703 
Q 3103 4656 3366 4563 
z
" id="DejaVuSans-36" transform="scale(0.015625)"/>
        <path d="M 2034 4250 
Q 1547 4250 1301 3770 
Q 1056 3291 1056 2328 
Q 1056 1369 1301 889 
Q 1547 409 2034 409 
Q 2525 409 2770 889 
Q 3016 1369 3016 2328 
Q 3016 3291 2770 3770 
Q 2525 4250 2034 4250 
z
M 2034 4750 
Q 2819 4750 3233 4129 
Q 3647 3509 3647 2328 
Q 3647 1150 3233 529 
Q 2819 -91 2034 -91 
Q 1250 -91 836 529 
Q 422 1150 422 2328 
Q 422 3509 836 4129 
Q 1250 4750 2034 4750 
z
" id="DejaVuSans-30" transform="scale(0.015625)"/>
       </defs>
       <use xlink:href="#DejaVuSans-31"/>
       <use x="63.623047" xlink:href="#DejaVuSans-39"/>
       <use x="127.246094" xlink:href="#DejaVuSans-36"/>
       <use x="190.869141" xlink:href="#DejaVuSans-30"/>
      </g>
     </g>
    </g>
    <g id="xtick_3">
     <g id="line2d_5">
      <path clip-path="url(#pd1c14922a6)" d="M 92.818907 243.895 
L 92.818907 28.718437 
" style="fill:none;stroke:#cbcbcb;"/>
     </g>
     <g id="line2d_6"/>
     <g id="text_2">
      <!-- 1965 -->
      <g transform="translate(85.183907 251.954063)scale(0.06 -0.06)">
       <defs>
        <path d="M 691 4666 
L 3169 4666 
L 3169 4134 
L 1269 4134 
L 1269 2991 
Q 1406 3038 1543 3061 
Q 1681 3084 1819 3084 
Q 2600 3084 3056 2656 
Q 3513 2228 3513 1497 
Q 3513 744 3044 326 
Q 2575 -91 1722 -91 
Q 1428 -91 1123 -41 
Q 819 9 494 109 
L 494 744 
Q 775 591 1075 516 
Q 1375 441 1709 441 
Q 2250 441 2565 725 
Q 2881 1009 2881 1497 
Q 2881 1984 2565 2268 
Q 2250 2553 1709 2553 
Q 1456 2553 1204 2497 
Q 953 2441 691 2322 
L 691 4666 
z
" id="DejaVuSans-35" transform="scale(0.015625)"/>
       </defs>
       <use xlink:href="#DejaVuSans-31"/>
       <use x="63.623047" xlink:href="#DejaVuSans-39"/>
       <use x="127.246094" xlink:href="#DejaVuSans-36"/>
       <use x="190.869141" xlink:href="#DejaVuSans-35"/>
      </g>
     </g>
    </g>
    <g id="xtick_4">
     <g id="line2d_7">
      <path clip-path="url(#pd1c14922a6)" d="M 139.212143 243.895 
L 139.212143 28.718437 
" style="fill:none;stroke:#cbcbcb;"/>
     </g>
     <g id="line2d_8"/>
     <g id="text_3">
      <!-- 1970 -->
      <g transform="translate(131.577143 251.954063)scale(0.06 -0.06)">
       <defs>
        <path d="M 525 4666 
L 3525 4666 
L 3525 4397 
L 1831 0 
L 1172 0 
L 2766 4134 
L 525 4134 
L 525 4666 
z
" id="DejaVuSans-37" transform="scale(0.015625)"/>
       </defs>
       <use xlink:href="#DejaVuSans-31"/>
       <use x="63.623047" xlink:href="#DejaVuSans-39"/>
       <use x="127.246094" xlink:href="#DejaVuSans-37"/>
       <use x="190.869141" xlink:href="#DejaVuSans-30"/>
      </g>
     </g>
    </g>
    <g id="xtick_5">
     <g id="line2d_9">
      <path clip-path="url(#pd1c14922a6)" d="M 185.605379 243.895 
L 185.605379 28.718437 
" style="fill:none;stroke:#cbcbcb;"/>
     </g>
     <g id="line2d_10"/>
     <g id="text_4">
      <!-- 1975 -->
      <g transform="translate(177.970379 251.954063)scale(0.06 -0.06)">
       <use xlink:href="#DejaVuSans-31"/>
       <use x="63.623047" xlink:href="#DejaVuSans-39"/>
       <use x="127.246094" xlink:href="#DejaVuSans-37"/>
       <use x="190.869141" xlink:href="#DejaVuSans-35"/>
      </g>
     </g>
    </g>
    <g id="xtick_6">
     <g id="line2d_11">
      <path clip-path="url(#pd1c14922a6)" d="M 231.998615 243.895 
L 231.998615 28.718437 
" style="fill:none;stroke:#cbcbcb;"/>
     </g>
     <g id="line2d_12"/>
     <g id="text_5">
      <!-- 1980 -->
      <g transform="translate(224.363615 251.954063)scale(0.06 -0.06)">
       <defs>
        <path d="M 2034 2216 
Q 1584 2216 1326 1975 
Q 1069 1734 1069 1313 
Q 1069 891 1326 650 
Q 1584 409 2034 409 
Q 2484 409 2743 651 
Q 3003 894 3003 1313 
Q 3003 1734 2745 1975 
Q 2488 2216 2034 2216 
z
M 1403 2484 
Q 997 2584 770 2862 
Q 544 3141 544 3541 
Q 544 4100 942 4425 
Q 1341 4750 2034 4750 
Q 2731 4750 3128 4425 
Q 3525 4100 3525 3541 
Q 3525 3141 3298 2862 
Q 3072 2584 2669 2484 
Q 3125 2378 3379 2068 
Q 3634 1759 3634 1313 
Q 3634 634 3220 271 
Q 2806 -91 2034 -91 
Q 1263 -91 848 271 
Q 434 634 434 1313 
Q 434 1759 690 2068 
Q 947 2378 1403 2484 
z
M 1172 3481 
Q 1172 3119 1398 2916 
Q 1625 2713 2034 2713 
Q 2441 2713 2670 2916 
Q 2900 3119 2900 3481 
Q 2900 3844 2670 4047 
Q 2441 4250 2034 4250 
Q 1625 4250 1398 4047 
Q 1172 3844 1172 3481 
z
" id="DejaVuSans-38" transform="scale(0.015625)"/>
       </defs>
       <use xlink:href="#DejaVuSans-31"/>
       <use x="63.623047" xlink:href="#DejaVuSans-39"/>
       <use x="127.246094" xlink:href="#DejaVuSans-38"/>
       <use x="190.869141" xlink:href="#DejaVuSans-30"/>
      </g>
     </g>
    </g>
    <g id="xtick_7">
     <g id="line2d_13">
      <path clip-path="url(#pd1c14922a6)" d="M 278.391851 243.895 
L 278.391851 28.718437 
" style="fill:none;stroke:#cbcbcb;"/>
     </g>
     <g id="line2d_14"/>
     <g id="text_6">
      <!-- 1985 -->
      <g transform="translate(270.756851 251.954063)scale(0.06 -0.06)">
       <use xlink:href="#DejaVuSans-31"/>
       <use x="63.623047" xlink:href="#DejaVuSans-39"/>
       <use x="127.246094" xlink:href="#DejaVuSans-38"/>
       <use x="190.869141" xlink:href="#DejaVuSans-35"/>
      </g>
     </g>
    </g>
    <g id="xtick_8">
     <g id="line2d_15">
      <path clip-path="url(#pd1c14922a6)" d="M 324.785087 243.895 
L 324.785087 28.718437 
" style="fill:none;stroke:#cbcbcb;"/>
     </g>
     <g id="line2d_16"/>
     <g id="text_7">
      <!-- 1990 -->
      <g transform="translate(317.150087 251.954063)scale(0.06 -0.06)">
       <use xlink:href="#DejaVuSans-31"/>
       <use x="63.623047" xlink:href="#DejaVuSans-39"/>
       <use x="127.246094" xlink:href="#DejaVuSans-39"/>
       <use x="190.869141" xlink:href="#DejaVuSans-30"/>
      </g>
     </g>
    </g>
    <g id="xtick_9">
     <g id="line2d_17">
      <path clip-path="url(#pd1c14922a6)" d="M 371.178322 243.895 
L 371.178322 28.718437 
" style="fill:none;stroke:#cbcbcb;"/>
     </g>
     <g id="line2d_18"/>
     <g id="text_8">
      <!-- 1995 -->
      <g transform="translate(363.543322 251.954063)scale(0.06 -0.06)">
       <use xlink:href="#DejaVuSans-31"/>
       <use x="63.623047" xlink:href="#DejaVuSans-39"/>
       <use x="127.246094" xlink:href="#DejaVuSans-39"/>
       <use x="190.869141" xlink:href="#DejaVuSans-35"/>
      </g>
     </g>
    </g>
    <g id="xtick_10">
     <g id="line2d_19">
      <path clip-path="url(#pd1c14922a6)" d="M 417.393806 243.895 
L 417.393806 28.718437 
" style="fill:none;stroke:#cbcbcb;"/>
     </g>
     <g id="line2d_20"/>
     <g id="text_9">
      <!-- 2000 -->
      <g transform="translate(409.758806 251.954063)scale(0.06 -0.06)">
       <defs>
        <path d="M 1228 531 
L 3431 531 
L 3431 0 
L 469 0 
L 469 531 
Q 828 903 1448 1529 
Q 2069 2156 2228 2338 
Q 2531 2678 2651 2914 
Q 2772 3150 2772 3378 
Q 2772 3750 2511 3984 
Q 2250 4219 1831 4219 
Q 1534 4219 1204 4116 
Q 875 4013 500 3803 
L 500 4441 
Q 881 4594 1212 4672 
Q 1544 4750 1819 4750 
Q 2544 4750 2975 4387 
Q 3406 4025 3406 3419 
Q 3406 3131 3298 2873 
Q 3191 2616 2906 2266 
Q 2828 2175 2409 1742 
Q 1991 1309 1228 531 
z
" id="DejaVuSans-32" transform="scale(0.015625)"/>
       </defs>
       <use xlink:href="#DejaVuSans-32"/>
       <use x="63.623047" xlink:href="#DejaVuSans-30"/>
       <use x="127.246094" xlink:href="#DejaVuSans-30"/>
       <use x="190.869141" xlink:href="#DejaVuSans-30"/>
      </g>
     </g>
    </g>
    <g id="xtick_11">
     <g id="line2d_21">
      <path clip-path="url(#pd1c14922a6)" d="M 435.88 243.895 
L 435.88 28.718437 
" style="fill:none;stroke:#cbcbcb;"/>
     </g>
     <g id="line2d_22"/>
    </g>
    <g id="xtick_12">
     <g id="line2d_23"/>
    </g>
    <g id="xtick_13">
     <g id="line2d_24"/>
    </g>
    <g id="xtick_14">
     <g id="line2d_25"/>
    </g>
    <g id="xtick_15">
     <g id="line2d_26"/>
    </g>
    <g id="xtick_16">
     <g id="line2d_27"/>
    </g>
    <g id="xtick_17">
     <g id="line2d_28"/>
    </g>
    <g id="xtick_18">
     <g id="line2d_29"/>
    </g>
    <g id="xtick_19">
     <g id="line2d_30"/>
    </g>
    <g id="xtick_20">
     <g id="line2d_31"/>
    </g>
    <g id="xtick_21">
     <g id="line2d_32"/>
    </g>
    <g id="xtick_22">
     <g id="line2d_33"/>
    </g>
    <g id="xtick_23">
     <g id="line2d_34"/>
    </g>
    <g id="xtick_24">
     <g id="line2d_35"/>
    </g>
    <g id="xtick_25">
     <g id="line2d_36"/>
    </g>
    <g id="xtick_26">
     <g id="line2d_37"/>
    </g>
    <g id="xtick_27">
     <g id="line2d_38"/>
    </g>
    <g id="xtick_28">
     <g id="line2d_39"/>
    </g>
    <g id="xtick_29">
     <g id="line2d_40"/>
    </g>
    <g id="xtick_30">
     <g id="line2d_41"/>
    </g>
    <g id="xtick_31">
     <g id="line2d_42"/>
    </g>
    <g id="xtick_32">
     <g id="line2d_43"/>
    </g>
    <g id="xtick_33">
     <g id="line2d_44"/>
    </g>
    <g id="xtick_34">
     <g id="line2d_45"/>
    </g>
    <g id="xtick_35">
     <g id="line2d_46"/>
    </g>
    <g id="xtick_36">
     <g id="line2d_47"/>
    </g>
    <g id="xtick_37">
     <g id="line2d_48"/>
    </g>
    <g id="xtick_38">
     <g id="line2d_49"/>
    </g>
    <g id="xtick_39">
     <g id="line2d_50"/>
    </g>
    <g id="xtick_40">
     <g id="line2d_51"/>
    </g>
    <g id="xtick_41">
     <g id="line2d_52"/>
    </g>
    <g id="xtick_42">
     <g id="line2d_53"/>
    </g>
    <g id="xtick_43">
     <g id="line2d_54"/>
    </g>
    <g id="xtick_44">
     <g id="line2d_55"/>
    </g>
    <g id="xtick_45">
     <g id="line2d_56"/>
    </g>
    <g id="text_10">
     <!-- Date -->
     <g transform="translate(221.025469 264.800313)scale(0.1 -0.1)">
      <defs>
       <path d="M 1259 4147 
L 1259 519 
L 2022 519 
Q 2988 519 3436 956 
Q 3884 1394 3884 2338 
Q 3884 3275 3436 3711 
Q 2988 4147 2022 4147 
L 1259 4147 
z
M 628 4666 
L 1925 4666 
Q 3281 4666 3915 4102 
Q 4550 3538 4550 2338 
Q 4550 1131 3912 565 
Q 3275 0 1925 0 
L 628 0 
L 628 4666 
z
" id="DejaVuSans-44" transform="scale(0.015625)"/>
       <path d="M 2194 1759 
Q 1497 1759 1228 1600 
Q 959 1441 959 1056 
Q 959 750 1161 570 
Q 1363 391 1709 391 
Q 2188 391 2477 730 
Q 2766 1069 2766 1631 
L 2766 1759 
L 2194 1759 
z
M 3341 1997 
L 3341 0 
L 2766 0 
L 2766 531 
Q 2569 213 2275 61 
Q 1981 -91 1556 -91 
Q 1019 -91 701 211 
Q 384 513 384 1019 
Q 384 1609 779 1909 
Q 1175 2209 1959 2209 
L 2766 2209 
L 2766 2266 
Q 2766 2663 2505 2880 
Q 2244 3097 1772 3097 
Q 1472 3097 1187 3025 
Q 903 2953 641 2809 
L 641 3341 
Q 956 3463 1253 3523 
Q 1550 3584 1831 3584 
Q 2591 3584 2966 3190 
Q 3341 2797 3341 1997 
z
" id="DejaVuSans-61" transform="scale(0.015625)"/>
       <path d="M 1172 4494 
L 1172 3500 
L 2356 3500 
L 2356 3053 
L 1172 3053 
L 1172 1153 
Q 1172 725 1289 603 
Q 1406 481 1766 481 
L 2356 481 
L 2356 0 
L 1766 0 
Q 1100 0 847 248 
Q 594 497 594 1153 
L 594 3053 
L 172 3053 
L 172 3500 
L 594 3500 
L 594 4494 
L 1172 4494 
z
" id="DejaVuSans-74" transform="scale(0.015625)"/>
       <path d="M 3597 1894 
L 3597 1613 
L 953 1613 
Q 991 1019 1311 708 
Q 1631 397 2203 397 
Q 2534 397 2845 478 
Q 3156 559 3463 722 
L 3463 178 
Q 3153 47 2828 -22 
Q 2503 -91 2169 -91 
Q 1331 -91 842 396 
Q 353 884 353 1716 
Q 353 2575 817 3079 
Q 1281 3584 2069 3584 
Q 2775 3584 3186 3129 
Q 3597 2675 3597 1894 
z
M 3022 2063 
Q 3016 2534 2758 2815 
Q 2500 3097 2075 3097 
Q 1594 3097 1305 2825 
Q 1016 2553 972 2059 
L 3022 2063 
z
" id="DejaVuSans-65" transform="scale(0.015625)"/>
      </defs>
      <use xlink:href="#DejaVuSans-44"/>
      <use x="77.001953" xlink:href="#DejaVuSans-61"/>
      <use x="138.28125" xlink:href="#DejaVuSans-74"/>
      <use x="177.490234" xlink:href="#DejaVuSans-65"/>
     </g>
    </g>
   </g>
   <g id="matplotlib.axis_2">
    <g id="ytick_1">
     <g id="line2d_57">
      <path clip-path="url(#pd1c14922a6)" d="M 30.0725 217.532282 
L 435.88 217.532282 
" style="fill:none;stroke:#cbcbcb;"/>
     </g>
     <g id="line2d_58"/>
     <g id="text_11">
      <!-- 320 -->
      <g transform="translate(15.12 219.811813)scale(0.06 -0.06)">
       <defs>
        <path d="M 2597 2516 
Q 3050 2419 3304 2112 
Q 3559 1806 3559 1356 
Q 3559 666 3084 287 
Q 2609 -91 1734 -91 
Q 1441 -91 1130 -33 
Q 819 25 488 141 
L 488 750 
Q 750 597 1062 519 
Q 1375 441 1716 441 
Q 2309 441 2620 675 
Q 2931 909 2931 1356 
Q 2931 1769 2642 2001 
Q 2353 2234 1838 2234 
L 1294 2234 
L 1294 2753 
L 1863 2753 
Q 2328 2753 2575 2939 
Q 2822 3125 2822 3475 
Q 2822 3834 2567 4026 
Q 2313 4219 1838 4219 
Q 1578 4219 1281 4162 
Q 984 4106 628 3988 
L 628 4550 
Q 988 4650 1302 4700 
Q 1616 4750 1894 4750 
Q 2613 4750 3031 4423 
Q 3450 4097 3450 3541 
Q 3450 3153 3228 2886 
Q 3006 2619 2597 2516 
z
" id="DejaVuSans-33" transform="scale(0.015625)"/>
       </defs>
       <use xlink:href="#DejaVuSans-33"/>
       <use x="63.623047" xlink:href="#DejaVuSans-32"/>
       <use x="127.246094" xlink:href="#DejaVuSans-30"/>
      </g>
     </g>
    </g>
    <g id="ytick_2">
     <g id="line2d_59">
      <path clip-path="url(#pd1c14922a6)" d="M 30.0725 182.323535 
L 435.88 182.323535 
" style="fill:none;stroke:#cbcbcb;"/>
     </g>
     <g id="line2d_60"/>
     <g id="text_12">
      <!-- 330 -->
      <g transform="translate(15.12 184.603066)scale(0.06 -0.06)">
       <use xlink:href="#DejaVuSans-33"/>
       <use x="63.623047" xlink:href="#DejaVuSans-33"/>
       <use x="127.246094" xlink:href="#DejaVuSans-30"/>
      </g>
     </g>
    </g>
    <g id="ytick_3">
     <g id="line2d_61">
      <path clip-path="url(#pd1c14922a6)" d="M 30.0725 147.114788 
L 435.88 147.114788 
" style="fill:none;stroke:#cbcbcb;"/>
     </g>
     <g id="line2d_62"/>
     <g id="text_13">
      <!-- 340 -->
      <g transform="translate(15.12 149.39432)scale(0.06 -0.06)">
       <defs>
        <path d="M 2419 4116 
L 825 1625 
L 2419 1625 
L 2419 4116 
z
M 2253 4666 
L 3047 4666 
L 3047 1625 
L 3713 1625 
L 3713 1100 
L 3047 1100 
L 3047 0 
L 2419 0 
L 2419 1100 
L 313 1100 
L 313 1709 
L 2253 4666 
z
" id="DejaVuSans-34" transform="scale(0.015625)"/>
       </defs>
       <use xlink:href="#DejaVuSans-33"/>
       <use x="63.623047" xlink:href="#DejaVuSans-34"/>
       <use x="127.246094" xlink:href="#DejaVuSans-30"/>
      </g>
     </g>
    </g>
    <g id="ytick_4">
     <g id="line2d_63">
      <path clip-path="url(#pd1c14922a6)" d="M 30.0725 111.906042 
L 435.88 111.906042 
" style="fill:none;stroke:#cbcbcb;"/>
     </g>
     <g id="line2d_64"/>
     <g id="text_14">
      <!-- 350 -->
      <g transform="translate(15.12 114.185573)scale(0.06 -0.06)">
       <use xlink:href="#DejaVuSans-33"/>
       <use x="63.623047" xlink:href="#DejaVuSans-35"/>
       <use x="127.246094" xlink:href="#DejaVuSans-30"/>
      </g>
     </g>
    </g>
    <g id="ytick_5">
     <g id="line2d_65">
      <path clip-path="url(#pd1c14922a6)" d="M 30.0725 76.697295 
L 435.88 76.697295 
" style="fill:none;stroke:#cbcbcb;"/>
     </g>
     <g id="line2d_66"/>
     <g id="text_15">
      <!-- 360 -->
      <g transform="translate(15.12 78.976826)scale(0.06 -0.06)">
       <use xlink:href="#DejaVuSans-33"/>
       <use x="63.623047" xlink:href="#DejaVuSans-36"/>
       <use x="127.246094" xlink:href="#DejaVuSans-30"/>
      </g>
     </g>
    </g>
    <g id="ytick_6">
     <g id="line2d_67">
      <path clip-path="url(#pd1c14922a6)" d="M 30.0725 41.488548 
L 435.88 41.488548 
" style="fill:none;stroke:#cbcbcb;"/>
     </g>
     <g id="line2d_68"/>
     <g id="text_16">
      <!-- 370 -->
      <g transform="translate(15.12 43.76808)scale(0.06 -0.06)">
       <use xlink:href="#DejaVuSans-33"/>
       <use x="63.623047" xlink:href="#DejaVuSans-37"/>
       <use x="127.246094" xlink:href="#DejaVuSans-30"/>
      </g>
     </g>
    </g>
   </g>
   <g id="line2d_69">
    <path clip-path="url(#pd1c14922a6)" d="M 34.694048 234.114247 
L 36.116063 233.745232 
L 36.471567 233.454083 
L 37.182574 232.909025 
L 37.893582 232.699126 
L 38.604589 232.65173 
L 40.382108 232.27933 
L 41.448619 231.781668 
L 43.048386 231.405882 
L 44.114897 231.091035 
L 47.669934 229.05299 
L 52.113731 228.3522 
L 55.313264 227.668338 
L 56.735279 227.438127 
L 57.446287 227.228229 
L 57.80179 227.136821 
L 58.868302 226.507127 
L 64.200857 224.692522 
L 65.44512 224.191474 
L 65.978376 224.028973 
L 66.33388 223.937565 
L 67.400391 223.463601 
L 68.644654 223.318027 
L 70.244421 222.871146 
L 70.955428 222.718801 
L 72.377443 222.613852 
L 73.799458 221.92999 
L 74.332714 221.82504 
L 75.221473 221.743789 
L 75.93248 221.662538 
L 76.643488 221.645611 
L 78.421006 221.310451 
L 79.487518 220.998989 
L 80.554029 219.831007 
L 81.442788 219.214853 
L 82.153795 219.160686 
L 83.398058 219.140373 
L 84.286818 218.896621 
L 84.820073 218.754431 
L 85.353329 218.541148 
L 85.886585 218.456511 
L 87.486351 218.060413 
L 88.552862 218.029944 
L 90.508133 219.052352 
L 92.818907 218.960944 
L 93.529915 218.66641 
L 94.774178 218.307551 
L 95.129681 218.239842 
L 96.018441 218.080726 
L 100.106733 216.269506 
L 102.239756 214.820531 
L 102.773011 214.685113 
L 103.661771 214.167138 
L 106.328049 213.165043 
L 107.572312 212.450712 
L 111.305101 211.519711 
L 111.660604 211.489242 
L 112.549364 211.225176 
L 116.99316 209.898077 
L 119.303935 209.342863 
L 120.014942 209.153277 
L 122.147964 207.931127 
L 123.569979 207.358985 
L 124.991994 207.050909 
L 126.591761 206.302723 
L 128.902535 204.79958 
L 130.680054 203.716234 
L 131.213309 203.387845 
L 131.746565 203.069612 
L 132.457572 202.551637 
L 134.946098 201.204225 
L 135.479354 200.9774 
L 136.368113 200.506821 
L 137.790128 199.863585 
L 138.501136 199.629988 
L 139.567647 199.288057 
L 140.278654 199.105242 
L 140.634158 198.885188 
L 141.345165 198.715915 
L 142.589428 198.147158 
L 145.255706 197.195845 
L 145.966714 197.128136 
L 147.033225 197.148449 
L 147.921984 196.813288 
L 148.810744 196.464586 
L 150.232758 196.034633 
L 151.477021 195.922913 
L 153.25454 195.357542 
L 155.565314 194.663524 
L 156.276322 194.179403 
L 159.120352 193.258559 
L 160.89787 192.195526 
L 161.964381 191.592915 
L 163.564148 190.556965 
L 164.275155 189.879874 
L 164.986163 189.355128 
L 165.69717 188.810069 
L 167.119185 187.286614 
L 168.007945 186.342072 
L 169.785463 184.568093 
L 171.207478 183.677718 
L 172.629493 183.240994 
L 174.940267 182.333691 
L 175.651275 182.218586 
L 176.18453 182.184731 
L 180.806079 181.639673 
L 182.405845 181.13524 
L 185.427627 180.183927 
L 186.138634 179.957101 
L 187.382898 179.547461 
L 189.338168 178.809431 
L 192.182198 177.49926 
L 193.426461 176.960972 
L 194.31522 176.646125 
L 197.15925 175.572935 
L 198.759017 175.139596 
L 200.00328 174.665633 
L 202.669558 173.369003 
L 204.091572 172.333053 
L 205.513587 171.253093 
L 206.402347 170.501521 
L 207.113354 169.93615 
L 208.002113 169.231975 
L 210.49064 167.336119 
L 217.24521 163.348052 
L 220.444744 161.875378 
L 220.800247 161.760273 
L 222.044511 161.059483 
L 223.466525 160.321454 
L 223.999781 160.020148 
L 224.355285 159.932126 
L 225.599548 159.275348 
L 226.666059 158.730289 
L 229.332337 156.935997 
L 234.842645 152.920846 
L 235.909156 152.206515 
L 237.864426 151.123169 
L 238.575434 150.740612 
L 239.286441 150.31743 
L 240.708456 149.532004 
L 242.663726 148.810902 
L 244.441245 148.262458 
L 245.152253 147.9036 
L 248.174034 146.413999 
L 249.062793 146.072068 
L 250.307057 145.493155 
L 251.55132 144.717885 
L 252.262327 144.31163 
L 253.151086 143.935845 
L 254.039846 143.634539 
L 256.706124 142.872811 
L 257.061627 142.845728 
L 258.30589 142.212647 
L 259.727905 141.217323 
L 260.616664 140.56393 
L 266.660228 135.617778 
L 267.371235 134.954229 
L 268.259995 134.378701 
L 279.991617 128.06144 
L 280.347121 127.766905 
L 284.613166 125.898133 
L 284.96867 125.887977 
L 286.746188 125.099165 
L 288.345955 124.24603 
L 289.234714 123.795765 
L 289.76797 123.416593 
L 290.301225 123.098361 
L 291.012233 122.705648 
L 292.612 121.852513 
L 294.389518 120.789479 
L 297.4113 118.971489 
L 299.011067 117.745954 
L 299.544322 117.343085 
L 300.788585 116.330833 
L 302.032848 115.332124 
L 304.521374 112.623758 
L 305.943389 111.262805 
L 308.609667 108.625534 
L 311.631449 106.103369 
L 312.875712 105.480445 
L 314.65323 104.359859 
L 316.075245 103.560892 
L 316.786253 103.171564 
L 321.407801 101.143676 
L 322.474312 100.486897 
L 323.718575 100.009548 
L 324.785087 99.569439 
L 325.318342 99.383238 
L 328.517876 97.829314 
L 329.584387 97.226703 
L 331.361905 96.387109 
L 332.250665 95.638924 
L 333.317176 94.782403 
L 334.561439 93.881872 
L 335.450198 93.479002 
L 335.805702 93.218322 
L 339.360739 91.952162 
L 340.249498 91.67794 
L 340.960506 91.539136 
L 342.027017 91.376634 
L 342.382521 91.325852 
L 342.915776 91.058401 
L 344.337791 90.625063 
L 345.048799 90.310215 
L 346.648565 89.809168 
L 350.91461 89.088065 
L 351.270114 89.016971 
L 351.625618 88.874782 
L 352.336625 88.793531 
L 352.869881 88.688582 
L 353.75864 88.397432 
L 355.180655 88.079199 
L 356.424918 87.578152 
L 357.669181 86.85705 
L 361.046466 84.78515 
L 361.757474 84.372125 
L 366.912278 80.387443 
L 367.801037 79.747591 
L 368.334293 79.341336 
L 368.689796 79.134824 
L 369.223052 78.657474 
L 369.756307 78.318929 
L 371.000571 77.249124 
L 372.600337 75.962651 
L 372.955841 75.685044 
L 373.489097 75.194152 
L 376.510878 73.108711 
L 377.577389 72.187867 
L 377.932893 71.893332 
L 378.466149 71.646194 
L 381.132427 69.895913 
L 382.732193 68.748243 
L 383.620953 68.237039 
L 384.509712 67.769846 
L 385.042968 67.492239 
L 386.464982 67.018275 
L 387.531494 66.737282 
L 388.775757 65.989096 
L 389.664516 65.752114 
L 392.508546 64.689081 
L 394.108313 63.663288 
L 395.352576 62.657807 
L 395.885831 62.197385 
L 397.485598 60.71117 
L 398.018853 60.223664 
L 399.796372 58.00619 
L 400.862883 56.59784 
L 402.46265 54.542868 
L 404.951176 51.922525 
L 405.30668 51.709241 
L 406.373191 50.663135 
L 409.750476 48.787592 
L 410.10598 48.696185 
L 410.639236 48.499829 
L 411.527995 48.161283 
L 413.661017 47.419868 
L 414.372025 47.213355 
L 414.90528 47.064395 
L 415.438536 47.033926 
L 415.971792 46.861268 
L 416.505047 46.691995 
L 419.526829 45.148227 
L 421.304347 44.129204 
L 422.370859 43.58076 
L 422.904114 43.350549 
L 424.503881 42.334912 
L 425.214888 41.992981 
L 426.103648 41.31589 
L 427.347911 40.581246 
L 431.258452 38.49919 
L 431.258452 38.49919 
" style="fill:none;stroke:#008fd5;stroke-width:4;"/>
   </g>
   <g id="patch_3">
    <path d="M 30.0725 243.895 
L 30.0725 28.718438 
" style="fill:none;stroke:#f0f0f0;stroke-linecap:square;stroke-linejoin:miter;stroke-width:3;"/>
   </g>
   <g id="patch_4">
    <path d="M 435.88 243.895 
L 435.88 28.718438 
" style="fill:none;stroke:#f0f0f0;stroke-linecap:square;stroke-linejoin:miter;stroke-width:3;"/>
   </g>
   <g id="patch_5">
    <path d="M 30.0725 243.895 
L 435.88 243.895 
" style="fill:none;stroke:#f0f0f0;stroke-linecap:square;stroke-linejoin:miter;stroke-width:3;"/>
   </g>
   <g id="patch_6">
    <path d="M 30.0725 28.718437 
L 435.88 28.718437 
" style="fill:none;stroke:#f0f0f0;stroke-linecap:square;stroke-linejoin:miter;stroke-width:3;"/>
   </g>
   <g id="text_17">
    <!-- Seasonal component the CO2 time-series -->
    <g transform="translate(129.011406 22.718437)scale(0.1 -0.1)">
     <defs>
      <path d="M 3425 4513 
L 3425 3897 
Q 3066 4069 2747 4153 
Q 2428 4238 2131 4238 
Q 1616 4238 1336 4038 
Q 1056 3838 1056 3469 
Q 1056 3159 1242 3001 
Q 1428 2844 1947 2747 
L 2328 2669 
Q 3034 2534 3370 2195 
Q 3706 1856 3706 1288 
Q 3706 609 3251 259 
Q 2797 -91 1919 -91 
Q 1588 -91 1214 -16 
Q 841 59 441 206 
L 441 856 
Q 825 641 1194 531 
Q 1563 422 1919 422 
Q 2459 422 2753 634 
Q 3047 847 3047 1241 
Q 3047 1584 2836 1778 
Q 2625 1972 2144 2069 
L 1759 2144 
Q 1053 2284 737 2584 
Q 422 2884 422 3419 
Q 422 4038 858 4394 
Q 1294 4750 2059 4750 
Q 2388 4750 2728 4690 
Q 3069 4631 3425 4513 
z
" id="DejaVuSans-53" transform="scale(0.015625)"/>
      <path d="M 2834 3397 
L 2834 2853 
Q 2591 2978 2328 3040 
Q 2066 3103 1784 3103 
Q 1356 3103 1142 2972 
Q 928 2841 928 2578 
Q 928 2378 1081 2264 
Q 1234 2150 1697 2047 
L 1894 2003 
Q 2506 1872 2764 1633 
Q 3022 1394 3022 966 
Q 3022 478 2636 193 
Q 2250 -91 1575 -91 
Q 1294 -91 989 -36 
Q 684 19 347 128 
L 347 722 
Q 666 556 975 473 
Q 1284 391 1588 391 
Q 1994 391 2212 530 
Q 2431 669 2431 922 
Q 2431 1156 2273 1281 
Q 2116 1406 1581 1522 
L 1381 1569 
Q 847 1681 609 1914 
Q 372 2147 372 2553 
Q 372 3047 722 3315 
Q 1072 3584 1716 3584 
Q 2034 3584 2315 3537 
Q 2597 3491 2834 3397 
z
" id="DejaVuSans-73" transform="scale(0.015625)"/>
      <path d="M 1959 3097 
Q 1497 3097 1228 2736 
Q 959 2375 959 1747 
Q 959 1119 1226 758 
Q 1494 397 1959 397 
Q 2419 397 2687 759 
Q 2956 1122 2956 1747 
Q 2956 2369 2687 2733 
Q 2419 3097 1959 3097 
z
M 1959 3584 
Q 2709 3584 3137 3096 
Q 3566 2609 3566 1747 
Q 3566 888 3137 398 
Q 2709 -91 1959 -91 
Q 1206 -91 779 398 
Q 353 888 353 1747 
Q 353 2609 779 3096 
Q 1206 3584 1959 3584 
z
" id="DejaVuSans-6f" transform="scale(0.015625)"/>
      <path d="M 3513 2113 
L 3513 0 
L 2938 0 
L 2938 2094 
Q 2938 2591 2744 2837 
Q 2550 3084 2163 3084 
Q 1697 3084 1428 2787 
Q 1159 2491 1159 1978 
L 1159 0 
L 581 0 
L 581 3500 
L 1159 3500 
L 1159 2956 
Q 1366 3272 1645 3428 
Q 1925 3584 2291 3584 
Q 2894 3584 3203 3211 
Q 3513 2838 3513 2113 
z
" id="DejaVuSans-6e" transform="scale(0.015625)"/>
      <path d="M 603 4863 
L 1178 4863 
L 1178 0 
L 603 0 
L 603 4863 
z
" id="DejaVuSans-6c" transform="scale(0.015625)"/>
      <path id="DejaVuSans-20" transform="scale(0.015625)"/>
      <path d="M 3122 3366 
L 3122 2828 
Q 2878 2963 2633 3030 
Q 2388 3097 2138 3097 
Q 1578 3097 1268 2742 
Q 959 2388 959 1747 
Q 959 1106 1268 751 
Q 1578 397 2138 397 
Q 2388 397 2633 464 
Q 2878 531 3122 666 
L 3122 134 
Q 2881 22 2623 -34 
Q 2366 -91 2075 -91 
Q 1284 -91 818 406 
Q 353 903 353 1747 
Q 353 2603 823 3093 
Q 1294 3584 2113 3584 
Q 2378 3584 2631 3529 
Q 2884 3475 3122 3366 
z
" id="DejaVuSans-63" transform="scale(0.015625)"/>
      <path d="M 3328 2828 
Q 3544 3216 3844 3400 
Q 4144 3584 4550 3584 
Q 5097 3584 5394 3201 
Q 5691 2819 5691 2113 
L 5691 0 
L 5113 0 
L 5113 2094 
Q 5113 2597 4934 2840 
Q 4756 3084 4391 3084 
Q 3944 3084 3684 2787 
Q 3425 2491 3425 1978 
L 3425 0 
L 2847 0 
L 2847 2094 
Q 2847 2600 2669 2842 
Q 2491 3084 2119 3084 
Q 1678 3084 1418 2786 
Q 1159 2488 1159 1978 
L 1159 0 
L 581 0 
L 581 3500 
L 1159 3500 
L 1159 2956 
Q 1356 3278 1631 3431 
Q 1906 3584 2284 3584 
Q 2666 3584 2933 3390 
Q 3200 3197 3328 2828 
z
" id="DejaVuSans-6d" transform="scale(0.015625)"/>
      <path d="M 1159 525 
L 1159 -1331 
L 581 -1331 
L 581 3500 
L 1159 3500 
L 1159 2969 
Q 1341 3281 1617 3432 
Q 1894 3584 2278 3584 
Q 2916 3584 3314 3078 
Q 3713 2572 3713 1747 
Q 3713 922 3314 415 
Q 2916 -91 2278 -91 
Q 1894 -91 1617 61 
Q 1341 213 1159 525 
z
M 3116 1747 
Q 3116 2381 2855 2742 
Q 2594 3103 2138 3103 
Q 1681 3103 1420 2742 
Q 1159 2381 1159 1747 
Q 1159 1113 1420 752 
Q 1681 391 2138 391 
Q 2594 391 2855 752 
Q 3116 1113 3116 1747 
z
" id="DejaVuSans-70" transform="scale(0.015625)"/>
      <path d="M 3513 2113 
L 3513 0 
L 2938 0 
L 2938 2094 
Q 2938 2591 2744 2837 
Q 2550 3084 2163 3084 
Q 1697 3084 1428 2787 
Q 1159 2491 1159 1978 
L 1159 0 
L 581 0 
L 581 4863 
L 1159 4863 
L 1159 2956 
Q 1366 3272 1645 3428 
Q 1925 3584 2291 3584 
Q 2894 3584 3203 3211 
Q 3513 2838 3513 2113 
z
" id="DejaVuSans-68" transform="scale(0.015625)"/>
      <path d="M 4122 4306 
L 4122 3641 
Q 3803 3938 3442 4084 
Q 3081 4231 2675 4231 
Q 1875 4231 1450 3742 
Q 1025 3253 1025 2328 
Q 1025 1406 1450 917 
Q 1875 428 2675 428 
Q 3081 428 3442 575 
Q 3803 722 4122 1019 
L 4122 359 
Q 3791 134 3420 21 
Q 3050 -91 2638 -91 
Q 1578 -91 968 557 
Q 359 1206 359 2328 
Q 359 3453 968 4101 
Q 1578 4750 2638 4750 
Q 3056 4750 3426 4639 
Q 3797 4528 4122 4306 
z
" id="DejaVuSans-43" transform="scale(0.015625)"/>
      <path d="M 2522 4238 
Q 1834 4238 1429 3725 
Q 1025 3213 1025 2328 
Q 1025 1447 1429 934 
Q 1834 422 2522 422 
Q 3209 422 3611 934 
Q 4013 1447 4013 2328 
Q 4013 3213 3611 3725 
Q 3209 4238 2522 4238 
z
M 2522 4750 
Q 3503 4750 4090 4092 
Q 4678 3434 4678 2328 
Q 4678 1225 4090 567 
Q 3503 -91 2522 -91 
Q 1538 -91 948 565 
Q 359 1222 359 2328 
Q 359 3434 948 4092 
Q 1538 4750 2522 4750 
z
" id="DejaVuSans-4f" transform="scale(0.015625)"/>
      <path d="M 603 3500 
L 1178 3500 
L 1178 0 
L 603 0 
L 603 3500 
z
M 603 4863 
L 1178 4863 
L 1178 4134 
L 603 4134 
L 603 4863 
z
" id="DejaVuSans-69" transform="scale(0.015625)"/>
      <path d="M 313 2009 
L 1997 2009 
L 1997 1497 
L 313 1497 
L 313 2009 
z
" id="DejaVuSans-2d" transform="scale(0.015625)"/>
      <path d="M 2631 2963 
Q 2534 3019 2420 3045 
Q 2306 3072 2169 3072 
Q 1681 3072 1420 2755 
Q 1159 2438 1159 1844 
L 1159 0 
L 581 0 
L 581 3500 
L 1159 3500 
L 1159 2956 
Q 1341 3275 1631 3429 
Q 1922 3584 2338 3584 
Q 2397 3584 2469 3576 
Q 2541 3569 2628 3553 
L 2631 2963 
z
" id="DejaVuSans-72" transform="scale(0.015625)"/>
     </defs>
     <use xlink:href="#DejaVuSans-53"/>
     <use x="63.476562" xlink:href="#DejaVuSans-65"/>
     <use x="125" xlink:href="#DejaVuSans-61"/>
     <use x="186.279297" xlink:href="#DejaVuSans-73"/>
     <use x="238.378906" xlink:href="#DejaVuSans-6f"/>
     <use x="299.560547" xlink:href="#DejaVuSans-6e"/>
     <use x="362.939453" xlink:href="#DejaVuSans-61"/>
     <use x="424.21875" xlink:href="#DejaVuSans-6c"/>
     <use x="452.001953" xlink:href="#DejaVuSans-20"/>
     <use x="483.789062" xlink:href="#DejaVuSans-63"/>
     <use x="538.769531" xlink:href="#DejaVuSans-6f"/>
     <use x="599.951172" xlink:href="#DejaVuSans-6d"/>
     <use x="697.363281" xlink:href="#DejaVuSans-70"/>
     <use x="760.839844" xlink:href="#DejaVuSans-6f"/>
     <use x="822.021484" xlink:href="#DejaVuSans-6e"/>
     <use x="885.400391" xlink:href="#DejaVuSans-65"/>
     <use x="946.923828" xlink:href="#DejaVuSans-6e"/>
     <use x="1010.302734" xlink:href="#DejaVuSans-74"/>
     <use x="1049.511719" xlink:href="#DejaVuSans-20"/>
     <use x="1081.298828" xlink:href="#DejaVuSans-74"/>
     <use x="1120.507812" xlink:href="#DejaVuSans-68"/>
     <use x="1183.886719" xlink:href="#DejaVuSans-65"/>
     <use x="1245.410156" xlink:href="#DejaVuSans-20"/>
     <use x="1277.197266" xlink:href="#DejaVuSans-43"/>
     <use x="1347.021484" xlink:href="#DejaVuSans-4f"/>
     <use x="1425.732422" xlink:href="#DejaVuSans-32"/>
     <use x="1489.355469" xlink:href="#DejaVuSans-20"/>
     <use x="1521.142578" xlink:href="#DejaVuSans-74"/>
     <use x="1560.351562" xlink:href="#DejaVuSans-69"/>
     <use x="1588.134766" xlink:href="#DejaVuSans-6d"/>
     <use x="1685.546875" xlink:href="#DejaVuSans-65"/>
     <use x="1747.070312" xlink:href="#DejaVuSans-2d"/>
     <use x="1783.154297" xlink:href="#DejaVuSans-73"/>
     <use x="1835.253906" xlink:href="#DejaVuSans-65"/>
     <use x="1896.777344" xlink:href="#DejaVuSans-72"/>
     <use x="1937.890625" xlink:href="#DejaVuSans-69"/>
     <use x="1965.673828" xlink:href="#DejaVuSans-65"/>
     <use x="2027.197266" xlink:href="#DejaVuSans-73"/>
    </g>
   </g>
  </g>
 </g>
 <defs>
  <clipPath id="pd1c14922a6">
   <rect height="215.176563" width="405.8075" x="30.0725" y="28.718437"/>
  </clipPath>
 </defs>
</svg>
