<?xml version="1.0" encoding="utf-8" standalone="no"?>
<!DOCTYPE svg PUBLIC "-//W3C//DTD SVG 1.1//EN"
  "http://www.w3.org/Graphics/SVG/1.1/DTD/svg11.dtd">
<svg height="282pt" version="1.1" viewBox="0 0 451 282" width="451pt" xmlns="http://www.w3.org/2000/svg" xmlns:xlink="http://www.w3.org/1999/xlink">
 <metadata>
  <rdf:RDF xmlns:cc="http://creativecommons.org/ns#" xmlns:dc="http://purl.org/dc/elements/1.1/" xmlns:rdf="http://www.w3.org/1999/02/22-rdf-syntax-ns#">
   <cc:Work>
    <dc:type rdf:resource="http://purl.org/dc/dcmitype/StillImage"/>
    <dc:date>2022-02-04T11:13:23.299861</dc:date>
    <dc:format>image/svg+xml</dc:format>
    <dc:creator>
     <cc:Agent>
      <dc:title>Matplotlib v3.4.3, https://matplotlib.org/</dc:title>
     </cc:Agent>
    </dc:creator>
   </cc:Work>
  </rdf:RDF>
 </metadata>
 <defs>
  <style type="text/css">*{stroke-linecap:butt;stroke-linejoin:round;}</style>
 </defs>
 <g id="figure_1">
  <g id="patch_1">
   <path d="M 0 282 
L 451 282 
L 451 0 
L 0 0 
z
" style="fill:#f0f0f0;"/>
  </g>
  <g id="axes_1">
   <g id="patch_2">
    <path d="M 43.750625 243.895 
L 435.88 243.895 
L 435.88 39.91625 
L 43.750625 39.91625 
z
" style="fill:#f0f0f0;"/>
   </g>
   <g id="matplotlib.axis_1">
    <g id="xtick_1">
     <g id="line2d_1">
      <path clip-path="url(#p5dda29c75f)" d="M 43.750625 243.895 
L 43.750625 39.91625 
" style="fill:none;stroke:#cbcbcb;"/>
     </g>
     <g id="line2d_2"/>
    </g>
    <g id="xtick_2">
     <g id="line2d_3">
      <path clip-path="url(#p5dda29c75f)" d="M 59.552597 243.895 
L 59.552597 39.91625 
" style="fill:none;stroke:#cbcbcb;"/>
     </g>
     <g id="line2d_4"/>
     <g id="text_1">
      <!-- 1960 -->
      <g transform="translate(51.917597 251.954063)scale(0.06 -0.06)">
       <defs>
        <path d="M 794 531 
L 1825 531 
L 1825 4091 
L 703 3866 
L 703 4441 
L 1819 4666 
L 2450 4666 
L 2450 531 
L 3481 531 
L 3481 0 
L 794 0 
L 794 531 
z
" id="DejaVuSans-31" transform="scale(0.015625)"/>
        <path d="M 703 97 
L 703 672 
Q 941 559 1184 500 
Q 1428 441 1663 441 
Q 2288 441 2617 861 
Q 2947 1281 2994 2138 
Q 2813 1869 2534 1725 
Q 2256 1581 1919 1581 
Q 1219 1581 811 2004 
Q 403 2428 403 3163 
Q 403 3881 828 4315 
Q 1253 4750 1959 4750 
Q 2769 4750 3195 4129 
Q 3622 3509 3622 2328 
Q 3622 1225 3098 567 
Q 2575 -91 1691 -91 
Q 1453 -91 1209 -44 
Q 966 3 703 97 
z
M 1959 2075 
Q 2384 2075 2632 2365 
Q 2881 2656 2881 3163 
Q 2881 3666 2632 3958 
Q 2384 4250 1959 4250 
Q 1534 4250 1286 3958 
Q 1038 3666 1038 3163 
Q 1038 2656 1286 2365 
Q 1534 2075 1959 2075 
z
" id="DejaVuSans-39" transform="scale(0.015625)"/>
        <path d="M 2113 2584 
Q 1688 2584 1439 2293 
Q 1191 2003 1191 1497 
Q 1191 994 1439 701 
Q 1688 409 2113 409 
Q 2538 409 2786 701 
Q 3034 994 3034 1497 
Q 3034 2003 2786 2293 
Q 2538 2584 2113 2584 
z
M 3366 4563 
L 3366 3988 
Q 3128 4100 2886 4159 
Q 2644 4219 2406 4219 
Q 1781 4219 1451 3797 
Q 1122 3375 1075 2522 
Q 1259 2794 1537 2939 
Q 1816 3084 2150 3084 
Q 2853 3084 3261 2657 
Q 3669 2231 3669 1497 
Q 3669 778 3244 343 
Q 2819 -91 2113 -91 
Q 1303 -91 875 529 
Q 447 1150 447 2328 
Q 447 3434 972 4092 
Q 1497 4750 2381 4750 
Q 2619 4750 2861 4703 
Q 3103 4656 3366 4563 
z
" id="DejaVuSans-36" transform="scale(0.015625)"/>
        <path d="M 2034 4250 
Q 1547 4250 1301 3770 
Q 1056 3291 1056 2328 
Q 1056 1369 1301 889 
Q 1547 409 2034 409 
Q 2525 409 2770 889 
Q 3016 1369 3016 2328 
Q 3016 3291 2770 3770 
Q 2525 4250 2034 4250 
z
M 2034 4750 
Q 2819 4750 3233 4129 
Q 3647 3509 3647 2328 
Q 3647 1150 3233 529 
Q 2819 -91 2034 -91 
Q 1250 -91 836 529 
Q 422 1150 422 2328 
Q 422 3509 836 4129 
Q 1250 4750 2034 4750 
z
" id="DejaVuSans-30" transform="scale(0.015625)"/>
       </defs>
       <use xlink:href="#DejaVuSans-31"/>
       <use x="63.623047" xlink:href="#DejaVuSans-39"/>
       <use x="127.246094" xlink:href="#DejaVuSans-36"/>
       <use x="190.869141" xlink:href="#DejaVuSans-30"/>
      </g>
     </g>
    </g>
    <g id="xtick_3">
     <g id="line2d_5">
      <path clip-path="url(#p5dda29c75f)" d="M 104.382105 243.895 
L 104.382105 39.91625 
" style="fill:none;stroke:#cbcbcb;"/>
     </g>
     <g id="line2d_6"/>
     <g id="text_2">
      <!-- 1965 -->
      <g transform="translate(96.747105 251.954063)scale(0.06 -0.06)">
       <defs>
        <path d="M 691 4666 
L 3169 4666 
L 3169 4134 
L 1269 4134 
L 1269 2991 
Q 1406 3038 1543 3061 
Q 1681 3084 1819 3084 
Q 2600 3084 3056 2656 
Q 3513 2228 3513 1497 
Q 3513 744 3044 326 
Q 2575 -91 1722 -91 
Q 1428 -91 1123 -41 
Q 819 9 494 109 
L 494 744 
Q 775 591 1075 516 
Q 1375 441 1709 441 
Q 2250 441 2565 725 
Q 2881 1009 2881 1497 
Q 2881 1984 2565 2268 
Q 2250 2553 1709 2553 
Q 1456 2553 1204 2497 
Q 953 2441 691 2322 
L 691 4666 
z
" id="DejaVuSans-35" transform="scale(0.015625)"/>
       </defs>
       <use xlink:href="#DejaVuSans-31"/>
       <use x="63.623047" xlink:href="#DejaVuSans-39"/>
       <use x="127.246094" xlink:href="#DejaVuSans-36"/>
       <use x="190.869141" xlink:href="#DejaVuSans-35"/>
      </g>
     </g>
    </g>
    <g id="xtick_4">
     <g id="line2d_7">
      <path clip-path="url(#p5dda29c75f)" d="M 149.211613 243.895 
L 149.211613 39.91625 
" style="fill:none;stroke:#cbcbcb;"/>
     </g>
     <g id="line2d_8"/>
     <g id="text_3">
      <!-- 1970 -->
      <g transform="translate(141.576613 251.954063)scale(0.06 -0.06)">
       <defs>
        <path d="M 525 4666 
L 3525 4666 
L 3525 4397 
L 1831 0 
L 1172 0 
L 2766 4134 
L 525 4134 
L 525 4666 
z
" id="DejaVuSans-37" transform="scale(0.015625)"/>
       </defs>
       <use xlink:href="#DejaVuSans-31"/>
       <use x="63.623047" xlink:href="#DejaVuSans-39"/>
       <use x="127.246094" xlink:href="#DejaVuSans-37"/>
       <use x="190.869141" xlink:href="#DejaVuSans-30"/>
      </g>
     </g>
    </g>
    <g id="xtick_5">
     <g id="line2d_9">
      <path clip-path="url(#p5dda29c75f)" d="M 194.041121 243.895 
L 194.041121 39.91625 
" style="fill:none;stroke:#cbcbcb;"/>
     </g>
     <g id="line2d_10"/>
     <g id="text_4">
      <!-- 1975 -->
      <g transform="translate(186.406121 251.954063)scale(0.06 -0.06)">
       <use xlink:href="#DejaVuSans-31"/>
       <use x="63.623047" xlink:href="#DejaVuSans-39"/>
       <use x="127.246094" xlink:href="#DejaVuSans-37"/>
       <use x="190.869141" xlink:href="#DejaVuSans-35"/>
      </g>
     </g>
    </g>
    <g id="xtick_6">
     <g id="line2d_11">
      <path clip-path="url(#p5dda29c75f)" d="M 238.870629 243.895 
L 238.870629 39.91625 
" style="fill:none;stroke:#cbcbcb;"/>
     </g>
     <g id="line2d_12"/>
     <g id="text_5">
      <!-- 1980 -->
      <g transform="translate(231.235629 251.954063)scale(0.06 -0.06)">
       <defs>
        <path d="M 2034 2216 
Q 1584 2216 1326 1975 
Q 1069 1734 1069 1313 
Q 1069 891 1326 650 
Q 1584 409 2034 409 
Q 2484 409 2743 651 
Q 3003 894 3003 1313 
Q 3003 1734 2745 1975 
Q 2488 2216 2034 2216 
z
M 1403 2484 
Q 997 2584 770 2862 
Q 544 3141 544 3541 
Q 544 4100 942 4425 
Q 1341 4750 2034 4750 
Q 2731 4750 3128 4425 
Q 3525 4100 3525 3541 
Q 3525 3141 3298 2862 
Q 3072 2584 2669 2484 
Q 3125 2378 3379 2068 
Q 3634 1759 3634 1313 
Q 3634 634 3220 271 
Q 2806 -91 2034 -91 
Q 1263 -91 848 271 
Q 434 634 434 1313 
Q 434 1759 690 2068 
Q 947 2378 1403 2484 
z
M 1172 3481 
Q 1172 3119 1398 2916 
Q 1625 2713 2034 2713 
Q 2441 2713 2670 2916 
Q 2900 3119 2900 3481 
Q 2900 3844 2670 4047 
Q 2441 4250 2034 4250 
Q 1625 4250 1398 4047 
Q 1172 3844 1172 3481 
z
" id="DejaVuSans-38" transform="scale(0.015625)"/>
       </defs>
       <use xlink:href="#DejaVuSans-31"/>
       <use x="63.623047" xlink:href="#DejaVuSans-39"/>
       <use x="127.246094" xlink:href="#DejaVuSans-38"/>
       <use x="190.869141" xlink:href="#DejaVuSans-30"/>
      </g>
     </g>
    </g>
    <g id="xtick_7">
     <g id="line2d_13">
      <path clip-path="url(#p5dda29c75f)" d="M 283.700137 243.895 
L 283.700137 39.91625 
" style="fill:none;stroke:#cbcbcb;"/>
     </g>
     <g id="line2d_14"/>
     <g id="text_6">
      <!-- 1985 -->
      <g transform="translate(276.065137 251.954063)scale(0.06 -0.06)">
       <use xlink:href="#DejaVuSans-31"/>
       <use x="63.623047" xlink:href="#DejaVuSans-39"/>
       <use x="127.246094" xlink:href="#DejaVuSans-38"/>
       <use x="190.869141" xlink:href="#DejaVuSans-35"/>
      </g>
     </g>
    </g>
    <g id="xtick_8">
     <g id="line2d_15">
      <path clip-path="url(#p5dda29c75f)" d="M 328.529645 243.895 
L 328.529645 39.91625 
" style="fill:none;stroke:#cbcbcb;"/>
     </g>
     <g id="line2d_16"/>
     <g id="text_7">
      <!-- 1990 -->
      <g transform="translate(320.894645 251.954063)scale(0.06 -0.06)">
       <use xlink:href="#DejaVuSans-31"/>
       <use x="63.623047" xlink:href="#DejaVuSans-39"/>
       <use x="127.246094" xlink:href="#DejaVuSans-39"/>
       <use x="190.869141" xlink:href="#DejaVuSans-30"/>
      </g>
     </g>
    </g>
    <g id="xtick_9">
     <g id="line2d_17">
      <path clip-path="url(#p5dda29c75f)" d="M 373.359154 243.895 
L 373.359154 39.91625 
" style="fill:none;stroke:#cbcbcb;"/>
     </g>
     <g id="line2d_18"/>
     <g id="text_8">
      <!-- 1995 -->
      <g transform="translate(365.724154 251.954063)scale(0.06 -0.06)">
       <use xlink:href="#DejaVuSans-31"/>
       <use x="63.623047" xlink:href="#DejaVuSans-39"/>
       <use x="127.246094" xlink:href="#DejaVuSans-39"/>
       <use x="190.869141" xlink:href="#DejaVuSans-35"/>
      </g>
     </g>
    </g>
    <g id="xtick_10">
     <g id="line2d_19">
      <path clip-path="url(#p5dda29c75f)" d="M 418.016901 243.895 
L 418.016901 39.91625 
" style="fill:none;stroke:#cbcbcb;"/>
     </g>
     <g id="line2d_20"/>
     <g id="text_9">
      <!-- 2000 -->
      <g transform="translate(410.381901 251.954063)scale(0.06 -0.06)">
       <defs>
        <path d="M 1228 531 
L 3431 531 
L 3431 0 
L 469 0 
L 469 531 
Q 828 903 1448 1529 
Q 2069 2156 2228 2338 
Q 2531 2678 2651 2914 
Q 2772 3150 2772 3378 
Q 2772 3750 2511 3984 
Q 2250 4219 1831 4219 
Q 1534 4219 1204 4116 
Q 875 4013 500 3803 
L 500 4441 
Q 881 4594 1212 4672 
Q 1544 4750 1819 4750 
Q 2544 4750 2975 4387 
Q 3406 4025 3406 3419 
Q 3406 3131 3298 2873 
Q 3191 2616 2906 2266 
Q 2828 2175 2409 1742 
Q 1991 1309 1228 531 
z
" id="DejaVuSans-32" transform="scale(0.015625)"/>
       </defs>
       <use xlink:href="#DejaVuSans-32"/>
       <use x="63.623047" xlink:href="#DejaVuSans-30"/>
       <use x="127.246094" xlink:href="#DejaVuSans-30"/>
       <use x="190.869141" xlink:href="#DejaVuSans-30"/>
      </g>
     </g>
    </g>
    <g id="xtick_11">
     <g id="line2d_21">
      <path clip-path="url(#p5dda29c75f)" d="M 435.88 243.895 
L 435.88 39.91625 
" style="fill:none;stroke:#cbcbcb;"/>
     </g>
     <g id="line2d_22"/>
    </g>
    <g id="xtick_12">
     <g id="line2d_23"/>
    </g>
    <g id="xtick_13">
     <g id="line2d_24"/>
    </g>
    <g id="xtick_14">
     <g id="line2d_25"/>
    </g>
    <g id="xtick_15">
     <g id="line2d_26"/>
    </g>
    <g id="xtick_16">
     <g id="line2d_27"/>
    </g>
    <g id="xtick_17">
     <g id="line2d_28"/>
    </g>
    <g id="xtick_18">
     <g id="line2d_29"/>
    </g>
    <g id="xtick_19">
     <g id="line2d_30"/>
    </g>
    <g id="xtick_20">
     <g id="line2d_31"/>
    </g>
    <g id="xtick_21">
     <g id="line2d_32"/>
    </g>
    <g id="xtick_22">
     <g id="line2d_33"/>
    </g>
    <g id="xtick_23">
     <g id="line2d_34"/>
    </g>
    <g id="xtick_24">
     <g id="line2d_35"/>
    </g>
    <g id="xtick_25">
     <g id="line2d_36"/>
    </g>
    <g id="xtick_26">
     <g id="line2d_37"/>
    </g>
    <g id="xtick_27">
     <g id="line2d_38"/>
    </g>
    <g id="xtick_28">
     <g id="line2d_39"/>
    </g>
    <g id="xtick_29">
     <g id="line2d_40"/>
    </g>
    <g id="xtick_30">
     <g id="line2d_41"/>
    </g>
    <g id="xtick_31">
     <g id="line2d_42"/>
    </g>
    <g id="xtick_32">
     <g id="line2d_43"/>
    </g>
    <g id="xtick_33">
     <g id="line2d_44"/>
    </g>
    <g id="xtick_34">
     <g id="line2d_45"/>
    </g>
    <g id="xtick_35">
     <g id="line2d_46"/>
    </g>
    <g id="xtick_36">
     <g id="line2d_47"/>
    </g>
    <g id="xtick_37">
     <g id="line2d_48"/>
    </g>
    <g id="xtick_38">
     <g id="line2d_49"/>
    </g>
    <g id="xtick_39">
     <g id="line2d_50"/>
    </g>
    <g id="xtick_40">
     <g id="line2d_51"/>
    </g>
    <g id="xtick_41">
     <g id="line2d_52"/>
    </g>
    <g id="xtick_42">
     <g id="line2d_53"/>
    </g>
    <g id="xtick_43">
     <g id="line2d_54"/>
    </g>
    <g id="xtick_44">
     <g id="line2d_55"/>
    </g>
    <g id="xtick_45">
     <g id="line2d_56"/>
    </g>
    <g id="text_10">
     <!-- Date -->
     <g transform="translate(227.864531 264.800313)scale(0.1 -0.1)">
      <defs>
       <path d="M 1259 4147 
L 1259 519 
L 2022 519 
Q 2988 519 3436 956 
Q 3884 1394 3884 2338 
Q 3884 3275 3436 3711 
Q 2988 4147 2022 4147 
L 1259 4147 
z
M 628 4666 
L 1925 4666 
Q 3281 4666 3915 4102 
Q 4550 3538 4550 2338 
Q 4550 1131 3912 565 
Q 3275 0 1925 0 
L 628 0 
L 628 4666 
z
" id="DejaVuSans-44" transform="scale(0.015625)"/>
       <path d="M 2194 1759 
Q 1497 1759 1228 1600 
Q 959 1441 959 1056 
Q 959 750 1161 570 
Q 1363 391 1709 391 
Q 2188 391 2477 730 
Q 2766 1069 2766 1631 
L 2766 1759 
L 2194 1759 
z
M 3341 1997 
L 3341 0 
L 2766 0 
L 2766 531 
Q 2569 213 2275 61 
Q 1981 -91 1556 -91 
Q 1019 -91 701 211 
Q 384 513 384 1019 
Q 384 1609 779 1909 
Q 1175 2209 1959 2209 
L 2766 2209 
L 2766 2266 
Q 2766 2663 2505 2880 
Q 2244 3097 1772 3097 
Q 1472 3097 1187 3025 
Q 903 2953 641 2809 
L 641 3341 
Q 956 3463 1253 3523 
Q 1550 3584 1831 3584 
Q 2591 3584 2966 3190 
Q 3341 2797 3341 1997 
z
" id="DejaVuSans-61" transform="scale(0.015625)"/>
       <path d="M 1172 4494 
L 1172 3500 
L 2356 3500 
L 2356 3053 
L 1172 3053 
L 1172 1153 
Q 1172 725 1289 603 
Q 1406 481 1766 481 
L 2356 481 
L 2356 0 
L 1766 0 
Q 1100 0 847 248 
Q 594 497 594 1153 
L 594 3053 
L 172 3053 
L 172 3500 
L 594 3500 
L 594 4494 
L 1172 4494 
z
" id="DejaVuSans-74" transform="scale(0.015625)"/>
       <path d="M 3597 1894 
L 3597 1613 
L 953 1613 
Q 991 1019 1311 708 
Q 1631 397 2203 397 
Q 2534 397 2845 478 
Q 3156 559 3463 722 
L 3463 178 
Q 3153 47 2828 -22 
Q 2503 -91 2169 -91 
Q 1331 -91 842 396 
Q 353 884 353 1716 
Q 353 2575 817 3079 
Q 1281 3584 2069 3584 
Q 2775 3584 3186 3129 
Q 3597 2675 3597 1894 
z
M 3022 2063 
Q 3016 2534 2758 2815 
Q 2500 3097 2075 3097 
Q 1594 3097 1305 2825 
Q 1016 2553 972 2059 
L 3022 2063 
z
" id="DejaVuSans-65" transform="scale(0.015625)"/>
      </defs>
      <use xlink:href="#DejaVuSans-44"/>
      <use x="77.001953" xlink:href="#DejaVuSans-61"/>
      <use x="138.28125" xlink:href="#DejaVuSans-74"/>
      <use x="177.490234" xlink:href="#DejaVuSans-65"/>
     </g>
    </g>
   </g>
   <g id="matplotlib.axis_2">
    <g id="ytick_1">
     <g id="line2d_57">
      <path clip-path="url(#p5dda29c75f)" d="M 43.750625 240.157234 
L 435.88 240.157234 
" style="fill:none;stroke:#cbcbcb;"/>
     </g>
     <g id="line2d_58"/>
     <g id="text_11">
      <!-- 310 -->
      <g transform="translate(28.798125 242.436765)scale(0.06 -0.06)">
       <defs>
        <path d="M 2597 2516 
Q 3050 2419 3304 2112 
Q 3559 1806 3559 1356 
Q 3559 666 3084 287 
Q 2609 -91 1734 -91 
Q 1441 -91 1130 -33 
Q 819 25 488 141 
L 488 750 
Q 750 597 1062 519 
Q 1375 441 1716 441 
Q 2309 441 2620 675 
Q 2931 909 2931 1356 
Q 2931 1769 2642 2001 
Q 2353 2234 1838 2234 
L 1294 2234 
L 1294 2753 
L 1863 2753 
Q 2328 2753 2575 2939 
Q 2822 3125 2822 3475 
Q 2822 3834 2567 4026 
Q 2313 4219 1838 4219 
Q 1578 4219 1281 4162 
Q 984 4106 628 3988 
L 628 4550 
Q 988 4650 1302 4700 
Q 1616 4750 1894 4750 
Q 2613 4750 3031 4423 
Q 3450 4097 3450 3541 
Q 3450 3153 3228 2886 
Q 3006 2619 2597 2516 
z
" id="DejaVuSans-33" transform="scale(0.015625)"/>
       </defs>
       <use xlink:href="#DejaVuSans-33"/>
       <use x="63.623047" xlink:href="#DejaVuSans-31"/>
       <use x="127.246094" xlink:href="#DejaVuSans-30"/>
      </g>
     </g>
    </g>
    <g id="ytick_2">
     <g id="line2d_59">
      <path clip-path="url(#p5dda29c75f)" d="M 43.750625 210.865431 
L 435.88 210.865431 
" style="fill:none;stroke:#cbcbcb;"/>
     </g>
     <g id="line2d_60"/>
     <g id="text_12">
      <!-- 320 -->
      <g transform="translate(28.798125 213.144962)scale(0.06 -0.06)">
       <use xlink:href="#DejaVuSans-33"/>
       <use x="63.623047" xlink:href="#DejaVuSans-32"/>
       <use x="127.246094" xlink:href="#DejaVuSans-30"/>
      </g>
     </g>
    </g>
    <g id="ytick_3">
     <g id="line2d_61">
      <path clip-path="url(#p5dda29c75f)" d="M 43.750625 181.573627 
L 435.88 181.573627 
" style="fill:none;stroke:#cbcbcb;"/>
     </g>
     <g id="line2d_62"/>
     <g id="text_13">
      <!-- 330 -->
      <g transform="translate(28.798125 183.853159)scale(0.06 -0.06)">
       <use xlink:href="#DejaVuSans-33"/>
       <use x="63.623047" xlink:href="#DejaVuSans-33"/>
       <use x="127.246094" xlink:href="#DejaVuSans-30"/>
      </g>
     </g>
    </g>
    <g id="ytick_4">
     <g id="line2d_63">
      <path clip-path="url(#p5dda29c75f)" d="M 43.750625 152.281824 
L 435.88 152.281824 
" style="fill:none;stroke:#cbcbcb;"/>
     </g>
     <g id="line2d_64"/>
     <g id="text_14">
      <!-- 340 -->
      <g transform="translate(28.798125 154.561355)scale(0.06 -0.06)">
       <defs>
        <path d="M 2419 4116 
L 825 1625 
L 2419 1625 
L 2419 4116 
z
M 2253 4666 
L 3047 4666 
L 3047 1625 
L 3713 1625 
L 3713 1100 
L 3047 1100 
L 3047 0 
L 2419 0 
L 2419 1100 
L 313 1100 
L 313 1709 
L 2253 4666 
z
" id="DejaVuSans-34" transform="scale(0.015625)"/>
       </defs>
       <use xlink:href="#DejaVuSans-33"/>
       <use x="63.623047" xlink:href="#DejaVuSans-34"/>
       <use x="127.246094" xlink:href="#DejaVuSans-30"/>
      </g>
     </g>
    </g>
    <g id="ytick_5">
     <g id="line2d_65">
      <path clip-path="url(#p5dda29c75f)" d="M 43.750625 122.99002 
L 435.88 122.99002 
" style="fill:none;stroke:#cbcbcb;"/>
     </g>
     <g id="line2d_66"/>
     <g id="text_15">
      <!-- 350 -->
      <g transform="translate(28.798125 125.269552)scale(0.06 -0.06)">
       <use xlink:href="#DejaVuSans-33"/>
       <use x="63.623047" xlink:href="#DejaVuSans-35"/>
       <use x="127.246094" xlink:href="#DejaVuSans-30"/>
      </g>
     </g>
    </g>
    <g id="ytick_6">
     <g id="line2d_67">
      <path clip-path="url(#p5dda29c75f)" d="M 43.750625 93.698217 
L 435.88 93.698217 
" style="fill:none;stroke:#cbcbcb;"/>
     </g>
     <g id="line2d_68"/>
     <g id="text_16">
      <!-- 360 -->
      <g transform="translate(28.798125 95.977748)scale(0.06 -0.06)">
       <use xlink:href="#DejaVuSans-33"/>
       <use x="63.623047" xlink:href="#DejaVuSans-36"/>
       <use x="127.246094" xlink:href="#DejaVuSans-30"/>
      </g>
     </g>
    </g>
    <g id="ytick_7">
     <g id="line2d_69">
      <path clip-path="url(#p5dda29c75f)" d="M 43.750625 64.406414 
L 435.88 64.406414 
" style="fill:none;stroke:#cbcbcb;"/>
     </g>
     <g id="line2d_70"/>
     <g id="text_17">
      <!-- 370 -->
      <g transform="translate(28.798125 66.685945)scale(0.06 -0.06)">
       <use xlink:href="#DejaVuSans-33"/>
       <use x="63.623047" xlink:href="#DejaVuSans-37"/>
       <use x="127.246094" xlink:href="#DejaVuSans-30"/>
      </g>
     </g>
    </g>
    <g id="text_18">
     <!-- CO2 levels in Mauai Hawaii -->
     <g transform="translate(22.718438 209.679063)rotate(-90)scale(0.1 -0.1)">
      <defs>
       <path d="M 4122 4306 
L 4122 3641 
Q 3803 3938 3442 4084 
Q 3081 4231 2675 4231 
Q 1875 4231 1450 3742 
Q 1025 3253 1025 2328 
Q 1025 1406 1450 917 
Q 1875 428 2675 428 
Q 3081 428 3442 575 
Q 3803 722 4122 1019 
L 4122 359 
Q 3791 134 3420 21 
Q 3050 -91 2638 -91 
Q 1578 -91 968 557 
Q 359 1206 359 2328 
Q 359 3453 968 4101 
Q 1578 4750 2638 4750 
Q 3056 4750 3426 4639 
Q 3797 4528 4122 4306 
z
" id="DejaVuSans-43" transform="scale(0.015625)"/>
       <path d="M 2522 4238 
Q 1834 4238 1429 3725 
Q 1025 3213 1025 2328 
Q 1025 1447 1429 934 
Q 1834 422 2522 422 
Q 3209 422 3611 934 
Q 4013 1447 4013 2328 
Q 4013 3213 3611 3725 
Q 3209 4238 2522 4238 
z
M 2522 4750 
Q 3503 4750 4090 4092 
Q 4678 3434 4678 2328 
Q 4678 1225 4090 567 
Q 3503 -91 2522 -91 
Q 1538 -91 948 565 
Q 359 1222 359 2328 
Q 359 3434 948 4092 
Q 1538 4750 2522 4750 
z
" id="DejaVuSans-4f" transform="scale(0.015625)"/>
       <path id="DejaVuSans-20" transform="scale(0.015625)"/>
       <path d="M 603 4863 
L 1178 4863 
L 1178 0 
L 603 0 
L 603 4863 
z
" id="DejaVuSans-6c" transform="scale(0.015625)"/>
       <path d="M 191 3500 
L 800 3500 
L 1894 563 
L 2988 3500 
L 3597 3500 
L 2284 0 
L 1503 0 
L 191 3500 
z
" id="DejaVuSans-76" transform="scale(0.015625)"/>
       <path d="M 2834 3397 
L 2834 2853 
Q 2591 2978 2328 3040 
Q 2066 3103 1784 3103 
Q 1356 3103 1142 2972 
Q 928 2841 928 2578 
Q 928 2378 1081 2264 
Q 1234 2150 1697 2047 
L 1894 2003 
Q 2506 1872 2764 1633 
Q 3022 1394 3022 966 
Q 3022 478 2636 193 
Q 2250 -91 1575 -91 
Q 1294 -91 989 -36 
Q 684 19 347 128 
L 347 722 
Q 666 556 975 473 
Q 1284 391 1588 391 
Q 1994 391 2212 530 
Q 2431 669 2431 922 
Q 2431 1156 2273 1281 
Q 2116 1406 1581 1522 
L 1381 1569 
Q 847 1681 609 1914 
Q 372 2147 372 2553 
Q 372 3047 722 3315 
Q 1072 3584 1716 3584 
Q 2034 3584 2315 3537 
Q 2597 3491 2834 3397 
z
" id="DejaVuSans-73" transform="scale(0.015625)"/>
       <path d="M 603 3500 
L 1178 3500 
L 1178 0 
L 603 0 
L 603 3500 
z
M 603 4863 
L 1178 4863 
L 1178 4134 
L 603 4134 
L 603 4863 
z
" id="DejaVuSans-69" transform="scale(0.015625)"/>
       <path d="M 3513 2113 
L 3513 0 
L 2938 0 
L 2938 2094 
Q 2938 2591 2744 2837 
Q 2550 3084 2163 3084 
Q 1697 3084 1428 2787 
Q 1159 2491 1159 1978 
L 1159 0 
L 581 0 
L 581 3500 
L 1159 3500 
L 1159 2956 
Q 1366 3272 1645 3428 
Q 1925 3584 2291 3584 
Q 2894 3584 3203 3211 
Q 3513 2838 3513 2113 
z
" id="DejaVuSans-6e" transform="scale(0.015625)"/>
       <path d="M 628 4666 
L 1569 4666 
L 2759 1491 
L 3956 4666 
L 4897 4666 
L 4897 0 
L 4281 0 
L 4281 4097 
L 3078 897 
L 2444 897 
L 1241 4097 
L 1241 0 
L 628 0 
L 628 4666 
z
" id="DejaVuSans-4d" transform="scale(0.015625)"/>
       <path d="M 544 1381 
L 544 3500 
L 1119 3500 
L 1119 1403 
Q 1119 906 1312 657 
Q 1506 409 1894 409 
Q 2359 409 2629 706 
Q 2900 1003 2900 1516 
L 2900 3500 
L 3475 3500 
L 3475 0 
L 2900 0 
L 2900 538 
Q 2691 219 2414 64 
Q 2138 -91 1772 -91 
Q 1169 -91 856 284 
Q 544 659 544 1381 
z
M 1991 3584 
L 1991 3584 
z
" id="DejaVuSans-75" transform="scale(0.015625)"/>
       <path d="M 628 4666 
L 1259 4666 
L 1259 2753 
L 3553 2753 
L 3553 4666 
L 4184 4666 
L 4184 0 
L 3553 0 
L 3553 2222 
L 1259 2222 
L 1259 0 
L 628 0 
L 628 4666 
z
" id="DejaVuSans-48" transform="scale(0.015625)"/>
       <path d="M 269 3500 
L 844 3500 
L 1563 769 
L 2278 3500 
L 2956 3500 
L 3675 769 
L 4391 3500 
L 4966 3500 
L 4050 0 
L 3372 0 
L 2619 2869 
L 1863 0 
L 1184 0 
L 269 3500 
z
" id="DejaVuSans-77" transform="scale(0.015625)"/>
      </defs>
      <use xlink:href="#DejaVuSans-43"/>
      <use x="69.824219" xlink:href="#DejaVuSans-4f"/>
      <use x="148.535156" xlink:href="#DejaVuSans-32"/>
      <use x="212.158203" xlink:href="#DejaVuSans-20"/>
      <use x="243.945312" xlink:href="#DejaVuSans-6c"/>
      <use x="271.728516" xlink:href="#DejaVuSans-65"/>
      <use x="333.251953" xlink:href="#DejaVuSans-76"/>
      <use x="392.431641" xlink:href="#DejaVuSans-65"/>
      <use x="453.955078" xlink:href="#DejaVuSans-6c"/>
      <use x="481.738281" xlink:href="#DejaVuSans-73"/>
      <use x="533.837891" xlink:href="#DejaVuSans-20"/>
      <use x="565.625" xlink:href="#DejaVuSans-69"/>
      <use x="593.408203" xlink:href="#DejaVuSans-6e"/>
      <use x="656.787109" xlink:href="#DejaVuSans-20"/>
      <use x="688.574219" xlink:href="#DejaVuSans-4d"/>
      <use x="774.853516" xlink:href="#DejaVuSans-61"/>
      <use x="836.132812" xlink:href="#DejaVuSans-75"/>
      <use x="899.511719" xlink:href="#DejaVuSans-61"/>
      <use x="960.791016" xlink:href="#DejaVuSans-69"/>
      <use x="988.574219" xlink:href="#DejaVuSans-20"/>
      <use x="1020.361328" xlink:href="#DejaVuSans-48"/>
      <use x="1095.556641" xlink:href="#DejaVuSans-61"/>
      <use x="1156.835938" xlink:href="#DejaVuSans-77"/>
      <use x="1238.623047" xlink:href="#DejaVuSans-61"/>
      <use x="1299.902344" xlink:href="#DejaVuSans-69"/>
      <use x="1327.685547" xlink:href="#DejaVuSans-69"/>
     </g>
    </g>
   </g>
   <g id="line2d_71">
    <path clip-path="url(#p5dda29c75f)" d="M 52.510414 224.677643 
L 54.056259 224.33966 
L 54.915062 223.686228 
L 55.773865 223.483438 
L 56.460907 223.444007 
L 57.31971 223.286282 
L 58.006752 223.173621 
L 59.380837 222.661015 
L 61.441963 222.227271 
L 62.644287 221.72593 
L 63.846611 221.128828 
L 64.705414 220.644387 
L 65.220696 220.44723 
L 66.938302 220.210643 
L 68.140626 220.086716 
L 71.232316 219.455815 
L 71.747597 219.388219 
L 73.293443 219.18543 
L 73.636964 219.196696 
L 74.495767 218.943209 
L 75.011048 218.808016 
L 75.869851 218.368639 
L 76.900414 218.041923 
L 78.61802 217.546215 
L 79.648584 217.196967 
L 82.053231 216.543534 
L 82.740274 216.267515 
L 83.083795 216.233717 
L 84.286119 215.79434 
L 85.316682 215.692945 
L 86.862527 215.338064 
L 87.54957 215.180339 
L 88.923654 215.129641 
L 90.81302 214.436778 
L 91.843584 214.341016 
L 95.622316 213.890373 
L 95.794077 213.839675 
L 96.996401 212.713068 
L 97.683443 212.296223 
L 98.026964 212.234259 
L 100.259852 212.070901 
L 101.633936 211.687854 
L 101.977457 211.654056 
L 104.210345 211.242844 
L 104.725626 211.299175 
L 105.584429 211.817414 
L 106.614993 212.132865 
L 109.019641 211.924442 
L 109.363162 211.817414 
L 110.393725 211.670955 
L 110.909007 211.445634 
L 111.252528 211.423102 
L 112.798373 211.000624 
L 113.485415 210.825999 
L 114.515979 210.414788 
L 115.374782 210.031741 
L 116.920627 209.124822 
L 117.779429 208.64038 
L 120.87112 207.609534 
L 121.386401 207.468708 
L 122.932246 206.663184 
L 124.306331 206.330834 
L 124.649852 206.319568 
L 125.508655 206.054815 
L 126.195697 205.852026 
L 126.88274 205.868925 
L 127.913303 205.58164 
L 128.943866 205.345052 
L 132.207317 204.48883 
L 135.127247 203.863563 
L 135.98605 203.35659 
L 137.531895 202.680625 
L 140.451824 201.925798 
L 141.138867 201.621614 
L 141.654148 201.362494 
L 148.524571 197.644688 
L 150.070416 197.041953 
L 151.10098 196.580044 
L 153.849149 195.701289 
L 154.707951 195.487234 
L 155.051473 195.346408 
L 155.910275 195.081655 
L 156.597318 194.822535 
L 159.689008 193.90435 
L 160.20429 193.876185 
L 160.891332 193.966313 
L 161.234853 193.864919 
L 162.437177 193.504404 
L 163.124219 193.267817 
L 163.639501 193.087559 
L 164.841825 192.957999 
L 165.185346 192.957999 
L 166.559431 192.591852 
L 167.589994 192.360897 
L 169.135839 191.989117 
L 171.025205 191.149794 
L 171.712248 191.0315 
L 172.055769 190.913206 
L 173.086332 190.541426 
L 173.601614 190.276673 
L 173.945135 190.118948 
L 174.975698 189.561277 
L 176.693304 188.659991 
L 177.552107 188.107953 
L 178.239149 187.561548 
L 179.613234 186.626463 
L 180.472037 185.792774 
L 182.017882 184.311284 
L 182.533163 183.871907 
L 183.391966 183.30297 
L 184.079008 182.936823 
L 184.59429 182.67207 
L 185.453093 182.508712 
L 188.716544 181.472233 
L 189.231825 181.4666 
L 191.808234 181.291975 
L 192.323516 181.275076 
L 193.869361 180.976525 
L 195.415206 180.554047 
L 197.132812 180.221698 
L 197.648093 180.075239 
L 198.335136 179.754156 
L 199.70922 179.416173 
L 200.739783 179.078191 
L 203.144431 178.176905 
L 204.174995 177.782592 
L 204.862037 177.534738 
L 205.549079 177.247453 
L 206.407882 176.954535 
L 207.610206 176.605287 
L 208.297248 176.323635 
L 208.984291 176.149011 
L 209.499572 175.980019 
L 213.450065 174.836513 
L 214.480629 174.397135 
L 215.854713 173.55218 
L 217.572319 172.442471 
L 218.431122 171.783405 
L 219.118164 171.344028 
L 219.805206 170.859587 
L 222.896897 168.837326 
L 226.160347 167.113616 
L 227.01915 166.646074 
L 227.362671 166.567211 
L 227.706193 166.370055 
L 228.393235 166.077137 
L 229.252038 165.677191 
L 232.000207 164.567482 
L 232.343728 164.516785 
L 233.546052 163.919683 
L 238.527108 161.711531 
L 239.385911 161.210191 
L 240.072953 160.866576 
L 242.13408 159.514646 
L 242.821122 159.103434 
L 244.023446 158.450002 
L 244.366968 158.292277 
L 244.882249 157.819101 
L 245.741052 157.312128 
L 246.771615 156.636163 
L 252.096193 154.135094 
L 252.783235 153.898506 
L 253.298517 153.70135 
L 253.813799 153.639386 
L 254.500841 153.459129 
L 255.703165 153.087349 
L 256.561968 152.664871 
L 259.653658 151.431235 
L 260.16894 151.239712 
L 264.119433 149.516002 
L 265.665278 149.099157 
L 266.35232 148.958331 
L 266.695841 148.862569 
L 267.039362 148.744275 
L 267.554644 148.693578 
L 268.585208 148.254201 
L 271.333377 146.530491 
L 271.676898 146.271371 
L 272.020419 146.085481 
L 272.707461 145.539076 
L 273.738025 144.89691 
L 274.596827 144.204046 
L 276.486194 142.91408 
L 276.829715 142.621162 
L 277.860278 141.883234 
L 281.123729 140.384845 
L 282.154292 139.945468 
L 284.043659 139.072347 
L 284.730701 138.790695 
L 286.276546 138.052767 
L 289.539997 136.531847 
L 289.883518 136.216396 
L 291.944645 135.360174 
L 293.66225 134.68421 
L 294.177532 134.644778 
L 294.521053 134.582815 
L 295.208095 134.357493 
L 302.937321 130.690385 
L 303.452603 130.419999 
L 305.68549 129.287758 
L 311.181828 125.581218 
L 312.040631 124.617969 
L 317.70873 119.925647 
L 320.113378 118.190671 
L 321.315702 117.70623 
L 322.346265 117.080962 
L 325.094434 115.745932 
L 326.296758 115.329087 
L 329.731969 113.99969 
L 330.247251 113.639176 
L 331.449575 113.273028 
L 334.369505 112.21965 
L 334.713026 112.084457 
L 335.91535 111.577483 
L 338.663519 110.400178 
L 339.00704 110.231187 
L 340.037603 109.543956 
L 340.724646 108.986285 
L 342.785773 107.825879 
L 343.301054 107.594925 
L 343.644575 107.4203 
L 348.969153 105.944444 
L 349.827956 105.916279 
L 350.514998 105.628994 
L 351.889083 105.240314 
L 352.576125 104.981194 
L 352.919646 104.891066 
L 353.434928 104.67701 
L 354.293731 104.558716 
L 355.839576 104.310863 
L 356.183097 104.260165 
L 356.698379 104.181303 
L 357.385421 104.063009 
L 358.244224 104.006679 
L 358.415984 104.006679 
L 358.759505 103.832054 
L 359.961829 103.725027 
L 360.477111 103.505338 
L 362.881759 103.003998 
L 364.942886 102.00695 
L 367.347534 100.65502 
L 368.034576 100.390268 
L 368.549858 100.148047 
L 370.095703 99.111568 
L 373.702675 96.717526 
L 374.217956 96.385177 
L 376.450844 94.971284 
L 378.683731 93.337703 
L 379.199013 93.061684 
L 381.603661 91.523864 
L 382.118942 91.230946 
L 384.52359 89.62553 
L 386.584717 88.493289 
L 389.676407 86.690716 
L 390.706971 86.211908 
L 391.394013 85.952788 
L 392.768098 85.597907 
L 393.283379 85.524677 
L 396.031548 84.471299 
L 398.951478 83.406655 
L 399.810281 82.922213 
L 401.184365 81.975863 
L 401.699647 81.553385 
L 404.447816 79.159343 
L 405.993661 77.514496 
L 407.195985 76.066805 
L 408.57007 74.737407 
L 409.428873 74.022011 
L 410.631197 72.991165 
L 411.833521 71.99975 
L 414.409929 70.675986 
L 415.955774 70.214077 
L 416.642816 69.994388 
L 417.84514 69.594443 
L 418.703943 69.340956 
L 419.219225 69.278992 
L 420.249788 69.053671 
L 420.59331 68.997341 
L 420.936831 68.873414 
L 421.280352 68.839615 
L 423.85676 67.836934 
L 424.200281 67.549649 
L 424.887324 67.228566 
L 426.604929 66.394876 
L 428.322535 65.578086 
L 429.009577 65.200672 
L 430.040141 64.755662 
L 430.898944 64.220523 
L 431.414225 63.961404 
L 432.101268 63.606522 
L 434.162394 62.677071 
L 435.88 61.871546 
L 435.88 61.871546 
" style="fill:none;stroke:#008fd5;stroke-width:0.8;"/>
   </g>
   <g id="line2d_72">
    <path clip-path="url(#p5dda29c75f)" d="M 52.510414 215.806351 
L 52.853935 215.633528 
L 53.197456 215.71616 
L 53.712738 214.743167 
L 54.056259 214.510012 
L 54.571541 213.258308 
L 55.086822 212.651904 
L 55.602104 212.447669 
L 56.632668 212.509961 
L 57.147949 212.688233 
L 57.834992 212.786302 
L 58.693794 213.231646 
L 59.552597 213.229567 
L 61.270203 212.743013 
L 61.785485 212.252094 
L 62.129006 211.55905 
L 62.300766 211.410309 
L 63.674851 208.850457 
L 64.533654 207.955379 
L 64.877175 207.864749 
L 65.392456 207.891429 
L 66.42302 208.113838 
L 67.281823 208.2937 
L 69.51471 208.143933 
L 70.029992 207.915801 
L 71.232316 207.291207 
L 71.404076 207.311141 
L 72.091119 206.812516 
L 72.43464 206.695611 
L 72.778161 206.592351 
L 73.121682 206.385445 
L 74.839288 206.438247 
L 75.869851 207.446689 
L 76.385133 207.66995 
L 77.072175 207.759124 
L 77.759217 207.643428 
L 78.61802 207.379335 
L 79.820344 206.396765 
L 80.163865 205.813307 
L 80.507386 205.644138 
L 80.850908 205.490223 
L 82.224992 204.238388 
L 82.740274 204.041825 
L 83.255555 204.144633 
L 83.599077 204.395513 
L 83.942598 204.699273 
L 86.003725 204.963538 
L 86.690767 204.872844 
L 87.72133 204.670373 
L 88.923654 204.552469 
L 90.297739 202.334607 
L 90.64126 201.987804 
L 91.671823 201.912936 
L 93.217668 202.045738 
L 95.450556 202.287721 
L 95.794077 202.174538 
L 96.82464 199.863765 
L 97.683443 198.538718 
L 97.855204 198.37341 
L 99.229288 198.448889 
L 99.401049 198.496935 
L 100.431612 198.051596 
L 101.118654 198.102332 
L 101.633936 198.326199 
L 101.805697 198.254902 
L 102.6645 198.725946 
L 103.179781 198.924641 
L 104.725626 199.012496 
L 105.75619 200.387156 
L 106.614993 201.109984 
L 107.473795 200.958596 
L 108.504359 200.980983 
L 108.84788 200.770759 
L 109.191401 200.326165 
L 110.050204 200.262003 
L 110.393725 200.322508 
L 110.565486 200.461645 
L 110.737246 200.798823 
L 111.252528 200.823782 
L 111.596049 200.984077 
L 112.111331 201.086926 
L 112.626612 201.216619 
L 113.313655 201.216741 
L 114.000697 200.907675 
L 114.687739 200.388023 
L 115.203021 199.768955 
L 115.718303 198.889662 
L 117.607669 195.053107 
L 118.122951 194.821225 
L 118.809993 194.691152 
L 119.668796 194.827648 
L 120.184077 195.285934 
L 120.699359 195.529167 
L 121.214641 195.663771 
L 122.073444 195.734087 
L 122.416965 195.656896 
L 122.760486 195.404019 
L 124.821613 194.551814 
L 124.993373 194.40529 
L 125.336894 193.806291 
L 125.508655 193.68198 
L 125.852176 193.292103 
L 126.195697 192.960159 
L 126.539218 192.991175 
L 127.0545 192.933136 
L 127.569782 192.817139 
L 127.913303 192.870974 
L 128.428585 193.022175 
L 129.115627 193.456788 
L 129.630909 193.903278 
L 130.661472 194.050161 
L 132.722599 193.64483 
L 133.924923 192.786515 
L 134.611965 192.447394 
L 135.642528 191.051811 
L 136.15781 190.529762 
L 136.501331 190.42537 
L 136.844852 190.450848 
L 137.531895 190.861876 
L 137.875416 191.108904 
L 138.218937 191.411908 
L 138.734219 191.602855 
L 139.421261 191.695146 
L 140.108303 191.59768 
L 140.451824 191.451509 
L 140.967106 191.10361 
L 141.310627 190.950757 
L 141.825909 190.309435 
L 143.199993 187.940703 
L 143.543515 187.120109 
L 145.432881 184.862804 
L 145.776402 184.812225 
L 146.119923 184.888411 
L 146.635205 185.385706 
L 146.978726 185.744499 
L 147.322247 186.098735 
L 147.837529 186.722122 
L 148.524571 187.050596 
L 149.211613 187.025531 
L 150.585698 186.25585 
L 151.27274 185.479479 
L 151.616261 184.948593 
L 152.131543 184.225525 
L 152.303303 184.287036 
L 152.990346 183.52341 
L 153.677388 182.891634 
L 154.879712 182.843652 
L 155.566754 182.99386 
L 157.28436 184.121606 
L 158.143163 184.121923 
L 158.658444 183.949651 
L 159.517247 183.627842 
L 160.20429 183.522405 
L 160.547811 183.788971 
L 161.063092 183.745642 
L 161.578374 183.001714 
L 162.608938 182.021226 
L 162.952459 181.694555 
L 163.983022 181.613567 
L 164.326543 181.69241 
L 165.357107 181.807608 
L 165.872388 182.038371 
L 166.559431 182.09083 
L 167.761755 181.875421 
L 169.135839 181.174124 
L 169.47936 180.558522 
L 170.166402 179.250046 
L 170.338163 179.144562 
L 170.853445 178.38164 
L 171.884008 178.018578 
L 172.227529 177.819862 
L 172.742811 177.764171 
L 173.086332 177.962642 
L 174.975698 179.565901 
L 175.662741 179.60207 
L 176.178022 179.351467 
L 176.865065 178.815679 
L 177.552107 177.833421 
L 178.754431 175.45023 
L 180.815558 170.038241 
L 181.5026 169.562374 
L 181.67436 169.530199 
L 182.361403 170.154264 
L 183.048445 171.294474 
L 183.391966 171.713144 
L 184.59429 172.440636 
L 185.624854 172.432204 
L 186.655417 171.889719 
L 187.170699 171.342364 
L 188.201262 170.245929 
L 188.716544 169.903546 
L 189.060065 169.996467 
L 189.575347 169.824709 
L 191.464713 169.642148 
L 191.808234 169.764035 
L 192.151755 169.728923 
L 192.667037 169.823508 
L 193.869361 169.877449 
L 194.556403 169.751846 
L 195.243445 169.483544 
L 195.586966 169.31336 
L 195.930488 169.312161 
L 197.648093 167.643635 
L 198.163375 166.889702 
L 198.506896 166.54417 
L 199.022178 166.382333 
L 199.70922 166.32366 
L 200.224502 166.553526 
L 201.083305 167.108781 
L 201.770347 167.441178 
L 202.457389 167.560932 
L 203.487953 167.30347 
L 204.518516 166.629895 
L 205.8926 164.879891 
L 206.236122 164.622072 
L 206.579643 164.108812 
L 206.751403 164.01631 
L 207.094924 163.631843 
L 207.438446 163.441124 
L 207.953727 163.111472 
L 208.469009 163.035309 
L 209.156051 163.30783 
L 209.499572 163.486531 
L 210.186615 163.876749 
L 210.530136 163.89587 
L 211.045417 164.071291 
L 211.73246 164.046603 
L 212.419502 163.749869 
L 213.450065 163.17102 
L 213.621826 163.011861 
L 213.965347 162.570379 
L 214.137108 162.404425 
L 214.82415 160.963777 
L 215.167671 160.087505 
L 216.713516 157.37414 
L 217.057037 157.114584 
L 217.572319 157.088963 
L 218.087601 157.334056 
L 218.602882 158.004198 
L 219.805206 159.438157 
L 220.320488 159.70362 
L 220.664009 159.677428 
L 221.351052 159.32763 
L 221.694573 158.982388 
L 222.209854 158.515929 
L 223.068657 157.192447 
L 223.583939 156.179191 
L 225.645066 153.017745 
L 226.160347 152.800233 
L 226.675629 152.828624 
L 227.362671 153.223912 
L 227.706193 153.682547 
L 228.393235 154.202806 
L 228.908516 154.517537 
L 229.595559 154.589261 
L 230.11084 154.509076 
L 231.828446 153.122053 
L 232.000207 152.801234 
L 232.343728 152.628659 
L 232.85901 151.666362 
L 233.03077 151.532597 
L 233.546052 150.461137 
L 234.404855 149.37066 
L 235.091897 148.990979 
L 235.607179 148.944071 
L 235.9507 149.078895 
L 236.294221 149.410824 
L 236.637742 149.787116 
L 236.981263 150.052089 
L 237.840066 150.482169 
L 238.355348 150.522107 
L 238.870629 150.37314 
L 239.214151 150.166755 
L 240.416474 148.982997 
L 242.821122 143.961499 
L 243.508165 143.016683 
L 244.366968 142.748943 
L 244.710489 142.954442 
L 245.741052 144.111764 
L 246.256334 144.830886 
L 246.771615 145.234381 
L 247.286897 145.376149 
L 247.802179 145.322039 
L 248.489221 145.06941 
L 249.348024 144.18827 
L 249.691545 143.798295 
L 250.035066 143.187788 
L 251.752672 140.275323 
L 252.439714 139.784853 
L 253.298517 139.632009 
L 253.813799 139.700442 
L 254.32908 140.001506 
L 256.390207 140.610488 
L 257.24901 140.247072 
L 258.279573 139.372505 
L 258.623095 138.991414 
L 259.310137 138.439517 
L 259.653658 137.856118 
L 259.825419 137.733268 
L 260.512461 136.728561 
L 261.886545 135.470814 
L 262.230067 135.466636 
L 263.088869 135.980898 
L 263.775912 136.524957 
L 264.806475 136.912591 
L 265.665278 136.891857 
L 266.867602 136.465344 
L 267.211123 136.415485 
L 267.382884 136.428474 
L 268.413447 134.980471 
L 270.474574 131.019021 
L 270.989855 130.640093 
L 271.505137 130.682117 
L 271.848658 130.834164 
L 272.020419 131.013015 
L 272.535701 131.822092 
L 273.050982 132.505029 
L 273.394503 132.856046 
L 274.081546 133.105684 
L 275.112109 132.701439 
L 275.970912 131.930753 
L 276.657954 131.052554 
L 277.173236 129.366592 
L 278.032039 127.414393 
L 279.234363 125.846345 
L 279.749644 125.490001 
L 280.436687 125.431234 
L 282.154292 126.777295 
L 282.841335 127.115543 
L 283.528377 127.027555 
L 284.215419 126.801079 
L 285.074222 126.068259 
L 285.933025 124.871331 
L 286.276546 124.51782 
L 287.822391 121.901425 
L 288.509433 121.394339 
L 289.024715 121.307267 
L 289.368236 121.406907 
L 289.539997 121.541653 
L 289.883518 122.018026 
L 290.742321 122.775919 
L 291.257602 123.172257 
L 291.944645 123.293939 
L 292.631687 123.162172 
L 293.49049 122.916898 
L 294.005771 122.691229 
L 294.349293 122.782177 
L 295.036335 121.889316 
L 295.208095 121.724853 
L 295.723377 120.963594 
L 297.269222 118.846131 
L 297.784504 118.611355 
L 298.299786 118.642878 
L 298.815067 118.855615 
L 300.017391 120.150084 
L 300.532673 120.418138 
L 301.391476 120.412884 
L 301.734997 120.220723 
L 302.422039 119.872386 
L 302.76556 119.670913 
L 303.280842 119.045252 
L 303.452603 118.942918 
L 304.311405 117.614668 
L 305.170208 115.764404 
L 305.68549 114.845908 
L 306.029011 114.420092 
L 306.544293 113.980609 
L 306.887814 113.844541 
L 307.231335 113.841651 
L 307.918377 114.254569 
L 308.261899 114.612534 
L 309.120701 115.715127 
L 309.635983 116.002423 
L 310.323025 116.011612 
L 310.838307 115.641747 
L 311.181828 115.146908 
L 312.384152 112.582135 
L 312.727673 111.851935 
L 313.414716 109.776724 
L 313.758237 108.900853 
L 314.61704 106.530145 
L 315.475842 105.22241 
L 315.991124 105.078492 
L 316.162885 105.081841 
L 316.849927 105.744604 
L 318.224011 107.778773 
L 318.739293 108.069776 
L 319.254575 108.181241 
L 319.769857 107.809212 
L 321.143941 106.858977 
L 321.487462 106.347935 
L 321.830983 105.815637 
L 322.689786 103.932278 
L 324.235631 101.911486 
L 324.922674 101.696008 
L 325.437955 101.855831 
L 326.468519 102.588228 
L 327.842603 103.136497 
L 328.529645 103.023639 
L 329.044927 102.81008 
L 329.216688 102.699441 
L 330.247251 101.303107 
L 330.419012 101.204593 
L 330.934293 100.687269 
L 331.277815 100.518022 
L 331.621336 99.840643 
L 332.480139 98.666041 
L 333.854223 98.052834 
L 334.541265 98.252057 
L 335.228308 98.936847 
L 335.91535 99.455968 
L 336.602392 99.677319 
L 337.117674 99.638273 
L 338.83528 98.768369 
L 340.037603 96.096343 
L 340.381125 95.053935 
L 340.552885 94.657758 
L 340.896406 93.579316 
L 342.09873 91.681466 
L 342.957533 91.610089 
L 343.129294 91.666593 
L 343.816336 92.247064 
L 345.362181 92.986778 
L 346.220984 92.96271 
L 347.079787 92.727703 
L 347.766829 92.418491 
L 348.11035 92.375138 
L 348.453871 92.120403 
L 348.625632 92.083892 
L 348.969153 91.750978 
L 349.140914 91.750978 
L 349.484435 91.464395 
L 349.656195 91.771942 
L 349.827956 91.63947 
L 350.343238 90.70686 
L 351.373801 90.183128 
L 352.060843 90.268767 
L 352.747885 90.571487 
L 353.606688 91.233734 
L 355.496055 91.249775 
L 356.870139 90.873453 
L 357.21366 90.773626 
L 357.728942 90.621264 
L 357.900702 90.684626 
L 358.072463 90.514213 
L 358.415984 90.514213 
L 358.759505 89.840956 
L 359.446548 89.675253 
L 359.618308 89.563024 
L 359.790069 89.62882 
L 360.477111 89.350589 
L 361.507674 89.401668 
L 361.851196 89.711728 
L 362.366477 89.865598 
L 363.397041 90.250377 
L 363.912322 90.259507 
L 364.427604 89.9778 
L 365.458167 89.109851 
L 365.629928 88.856879 
L 365.801689 88.80906 
L 366.14521 88.255749 
L 367.519294 85.610796 
L 369.065139 83.587751 
L 369.580421 83.338949 
L 369.923942 83.398238 
L 370.267463 83.627881 
L 370.610984 84.112923 
L 372.32859 85.936779 
L 372.672111 85.99075 
L 373.359154 85.768592 
L 374.389717 84.781696 
L 374.561477 84.555745 
L 374.904999 83.925898 
L 375.076759 83.858469 
L 375.24852 83.648371 
L 375.763801 82.023029 
L 376.279083 81.13768 
L 376.966125 79.260944 
L 377.481407 78.278307 
L 378.168449 77.378558 
L 378.511971 77.22391 
L 379.027252 77.41717 
L 379.370773 77.6335 
L 380.229576 78.900534 
L 380.916618 79.561305 
L 381.4319 79.752575 
L 381.947182 79.732147 
L 382.805985 79.140523 
L 383.321266 78.499611 
L 384.180069 76.800528 
L 384.52359 76.494917 
L 386.928238 72.564169 
L 387.271759 72.318742 
L 387.615281 72.296302 
L 387.958802 72.437219 
L 388.302323 72.830261 
L 388.817605 73.23341 
L 389.676407 74.202839 
L 390.53521 74.517735 
L 391.222253 74.445092 
L 392.081055 74.108036 
L 392.768098 73.8251 
L 393.111619 73.7929 
L 393.6269 73.0723 
L 394.313943 71.603281 
L 394.829224 70.800948 
L 396.203309 70.110752 
L 396.718591 70.043609 
L 397.405633 70.224911 
L 398.951478 71.277887 
L 399.294999 71.339261 
L 399.810281 71.197261 
L 400.840844 70.177008 
L 401.527887 69.160928 
L 402.214929 67.483907 
L 402.730211 66.188477 
L 403.932534 62.650864 
L 404.619577 61.022089 
L 405.306619 60.039869 
L 405.65014 59.890486 
L 405.993661 60.063191 
L 406.337182 60.625467 
L 407.883028 63.841254 
L 408.226549 64.16268 
L 408.74183 64.239127 
L 409.257112 63.953354 
L 409.600633 63.656506 
L 410.287675 62.507691 
L 410.631197 62.278627 
L 411.146478 61.091718 
L 411.833521 59.205767 
L 412.177042 58.415306 
L 412.520563 57.771528 
L 412.692323 57.666593 
L 413.207605 56.991531 
L 414.066408 56.119825 
L 414.75345 56.136216 
L 414.925211 56.276203 
L 415.096971 56.209967 
L 415.440492 56.500941 
L 415.955774 56.814359 
L 416.471056 57.080186 
L 416.986338 57.272423 
L 417.501619 57.301871 
L 418.188662 57.169979 
L 420.078028 56.366326 
L 420.421549 56.359957 
L 420.59331 56.189229 
L 420.936831 55.759922 
L 421.108591 55.779808 
L 421.452112 55.416597 
L 422.310915 54.217253 
L 422.482676 54.042664 
L 422.826197 53.97658 
L 423.341479 53.808537 
L 423.85676 53.900256 
L 424.200281 54.426801 
L 424.543803 54.729478 
L 425.059084 55.375067 
L 425.917887 55.916384 
L 426.261408 55.97949 
L 427.635493 55.538672 
L 430.040141 52.201574 
L 430.727183 50.576292 
L 431.585986 49.446368 
L 432.273028 49.188011 
L 432.616549 49.248809 
L 433.303591 49.774319 
L 434.505915 50.770717 
L 435.192958 50.923807 
L 435.88 50.716875 
L 435.88 50.716875 
" style="fill:none;stroke:#fc4f30;stroke-width:0.8;"/>
   </g>
   <g id="line2d_73">
    <path clip-path="url(#p5dda29c75f)" d="M 52.510414 233.548934 
L 53.197456 233.571528 
L 53.712738 234.048815 
L 54.056259 234.169309 
L 54.571541 234.553524 
L 55.086822 234.607891 
L 56.460907 234.425106 
L 57.147949 233.884331 
L 57.663231 233.773474 
L 57.834992 233.684867 
L 59.037315 232.246739 
L 59.380837 232.083167 
L 60.583161 231.828882 
L 61.785485 231.988391 
L 62.129006 232.275857 
L 62.472527 232.517994 
L 63.674851 233.553658 
L 64.190133 233.614714 
L 64.533654 233.524918 
L 65.907738 232.615921 
L 66.079499 232.664021 
L 66.766541 232.170578 
L 67.797104 231.944045 
L 69.686471 231.537308 
L 70.545273 231.518349 
L 71.232316 231.620424 
L 71.575837 231.694911 
L 72.43464 231.911835 
L 73.808724 231.928591 
L 73.980485 231.88891 
L 74.324006 231.599583 
L 74.839288 231.369308 
L 75.869851 229.290588 
L 76.213372 228.91957 
L 76.728654 228.455631 
L 77.415696 228.092689 
L 78.274499 227.745219 
L 79.133302 227.735334 
L 79.992105 228.069522 
L 80.507386 228.22029 
L 81.022668 228.379385 
L 81.70971 228.607959 
L 82.224992 228.679689 
L 82.568513 228.528746 
L 83.083795 228.421538 
L 83.599077 227.564947 
L 83.942598 226.945738 
L 84.62964 226.762952 
L 84.973161 226.742154 
L 85.660203 226.315578 
L 86.003725 226.185765 
L 86.519006 225.940396 
L 88.236612 225.689148 
L 89.095415 225.862145 
L 90.125978 226.676547 
L 90.64126 226.908283 
L 91.671823 226.881757 
L 92.187105 226.646462 
L 93.045908 226.720649 
L 93.217668 226.467302 
L 93.561189 226.331184 
L 94.248232 225.951994 
L 95.278795 225.605804 
L 95.965837 225.577421 
L 98.198725 226.101202 
L 100.088091 226.068983 
L 100.775133 225.884869 
L 101.118654 225.600093 
L 101.462176 225.189061 
L 101.633936 225.04951 
L 101.805697 225.177138 
L 102.320978 224.558998 
L 103.179781 223.775103 
L 103.523302 223.674823 
L 104.210345 223.50367 
L 105.584429 223.436593 
L 106.786753 223.175336 
L 110.050204 223.248898 
L 110.393725 223.019403 
L 110.565486 222.711274 
L 110.737246 222.069912 
L 111.080767 222.192284 
L 111.596049 221.693135 
L 111.93957 221.587171 
L 112.454852 220.959064 
L 114.000697 220.316213 
L 114.687739 220.328891 
L 115.374782 220.538677 
L 117.435908 222.278031 
L 118.122951 222.380673 
L 118.466472 222.183334 
L 118.638232 222.030148 
L 118.809993 221.66579 
L 119.153514 221.488245 
L 119.325275 221.247906 
L 119.668796 221.16878 
L 120.184077 220.316181 
L 120.355838 220.227876 
L 120.87112 219.610361 
L 121.04288 219.563743 
L 122.760486 218.035009 
L 123.619289 217.908195 
L 124.821613 218.019726 
L 125.165134 218.240964 
L 125.680416 218.543542 
L 126.539218 218.735409 
L 127.226261 218.625291 
L 127.741542 218.505267 
L 128.085064 218.227185 
L 128.256824 218.211654 
L 128.943866 217.362539 
L 129.459148 216.590689 
L 129.802669 216.150468 
L 130.661472 215.524602 
L 131.348514 215.275908 
L 132.035557 215.217915 
L 132.894359 215.192489 
L 133.581402 215.344157 
L 135.127247 215.875379 
L 135.470768 216.049325 
L 136.15781 216.014426 
L 136.673092 215.790208 
L 137.360134 214.861991 
L 137.703655 214.321586 
L 138.390698 213.29107 
L 138.562458 213.266632 
L 139.07774 212.930021 
L 139.593022 212.755029 
L 141.654148 212.173753 
L 142.512951 212.523384 
L 142.856472 212.834698 
L 143.199993 213.128171 
L 143.543515 213.486856 
L 144.745839 214.008479 
L 145.26112 213.925913 
L 146.119923 213.071025 
L 146.635205 211.841435 
L 146.978726 211.133393 
L 147.322247 210.429909 
L 147.837529 209.20942 
L 148.696332 208.110869 
L 150.242177 207.368309 
L 150.929219 207.427797 
L 152.646825 208.273205 
L 154.020909 208.523884 
L 154.536191 208.411057 
L 155.223233 207.694112 
L 155.738515 207.239635 
L 156.253797 206.278471 
L 156.940839 205.410374 
L 157.627881 204.78536 
L 158.143163 204.486668 
L 158.486684 204.398806 
L 158.830205 204.260011 
L 159.689008 204.220532 
L 160.37605 204.170104 
L 160.891332 204.124917 
L 161.063092 204.153186 
L 161.578374 204.525334 
L 162.437177 204.881422 
L 162.952459 204.908675 
L 163.46774 204.709205 
L 164.670064 204.199314 
L 164.841825 204.176523 
L 165.013585 204.314489 
L 166.902952 202.937485 
L 167.589994 202.790264 
L 168.964079 202.754037 
L 169.47936 202.991601 
L 170.166402 203.567781 
L 170.509924 203.735128 
L 170.853445 203.951746 
L 171.884008 204.02189 
L 172.742811 203.634131 
L 173.086332 203.120209 
L 173.601614 202.143677 
L 173.773374 201.923993 
L 174.288656 200.691944 
L 175.49098 199.013991 
L 176.521543 198.373242 
L 177.036825 198.340249 
L 178.067389 198.557958 
L 178.58267 198.914528 
L 180.300276 200.868149 
L 180.643797 200.899969 
L 181.159079 200.596449 
L 181.67436 199.824665 
L 183.220206 195.186388 
L 184.59429 192.903504 
L 185.453093 192.555073 
L 186.140135 192.33063 
L 186.655417 192.282749 
L 188.888304 193.004329 
L 191.464713 193.054463 
L 191.808234 192.819916 
L 192.151755 192.888826 
L 192.495276 192.68158 
L 193.182318 192.615074 
L 193.52584 192.39443 
L 193.869361 192.075601 
L 194.384642 191.842689 
L 194.899924 191.76529 
L 196.102248 191.79216 
L 196.961051 192.134339 
L 198.335136 192.827281 
L 198.850417 192.812698 
L 199.365699 192.6812 
L 200.052741 192.157322 
L 201.598586 190.092074 
L 201.942107 189.88483 
L 202.285629 189.570987 
L 202.972671 189.084362 
L 203.316192 188.830745 
L 204.518516 188.7325 
L 205.033798 188.911597 
L 205.377319 189.111116 
L 207.438446 189.927174 
L 207.781967 189.836052 
L 208.469009 189.578162 
L 210.186615 187.722775 
L 210.358375 187.787299 
L 210.701896 187.430656 
L 211.217178 187.059998 
L 212.075981 186.686591 
L 212.934784 186.502836 
L 213.621826 186.548503 
L 214.480629 187.059286 
L 214.82415 187.424915 
L 215.339432 187.972682 
L 215.854713 188.401438 
L 216.369995 188.612261 
L 216.885277 188.520135 
L 217.228798 188.313171 
L 217.74408 187.42268 
L 218.946404 184.564759 
L 219.633446 182.642953 
L 220.492249 181.074503 
L 221.179291 180.453836 
L 222.381615 180.017951 
L 222.725136 180.110739 
L 225.301545 181.821915 
L 225.816826 181.757825 
L 226.160347 181.426999 
L 227.362671 179.91051 
L 227.706193 179.057562 
L 228.049714 178.524574 
L 229.080277 176.936783 
L 229.595559 176.517267 
L 231.141404 176.030682 
L 231.656686 176.071667 
L 232.000207 176.33373 
L 232.343728 176.404911 
L 233.717812 177.486469 
L 234.576615 177.685719 
L 235.091897 177.440127 
L 235.9507 176.743843 
L 236.294221 176.073931 
L 236.637742 175.314593 
L 236.981263 174.801766 
L 238.870629 172.554216 
L 239.214151 172.422618 
L 240.416474 172.299511 
L 240.759996 172.509539 
L 241.275277 172.980964 
L 241.790559 173.4243 
L 242.477601 173.989029 
L 243.164644 174.362022 
L 243.508165 174.356495 
L 244.195207 173.997112 
L 244.366968 173.835611 
L 246.599855 168.33729 
L 247.115137 167.613375 
L 247.802179 167.026469 
L 248.1457 166.833546 
L 249.348024 166.594253 
L 249.691545 166.725108 
L 250.206827 167.119863 
L 251.06563 167.845278 
L 251.752672 168.242718 
L 252.439714 168.293811 
L 253.813799 167.578331 
L 254.15732 166.949276 
L 254.32908 166.973083 
L 254.672602 166.67359 
L 255.359644 165.967265 
L 256.905489 164.591454 
L 257.592531 164.390306 
L 258.107813 164.363004 
L 259.310137 164.738403 
L 259.653658 165.006352 
L 259.997179 165.200583 
L 260.512461 165.503008 
L 261.199503 165.671884 
L 261.543024 165.554239 
L 261.886545 165.375028 
L 262.230067 165.018692 
L 262.573588 164.570988 
L 263.604151 162.840221 
L 263.947672 162.560107 
L 264.462954 161.993384 
L 264.806475 161.736365 
L 266.18056 161.178266 
L 267.382884 161.105141 
L 268.241686 161.579556 
L 268.928729 162.218145 
L 269.787531 162.990845 
L 270.302813 163.15273 
L 270.818095 163.03516 
L 271.333377 162.472034 
L 271.676898 161.794777 
L 272.020419 161.157947 
L 272.535701 159.537712 
L 273.222743 157.640653 
L 274.081546 156.192428 
L 274.768588 155.323837 
L 275.627391 154.700957 
L 276.314433 154.47548 
L 276.657954 154.572816 
L 277.344996 155.510071 
L 278.203799 156.276663 
L 278.890842 156.578137 
L 279.406123 156.573954 
L 279.921405 156.32211 
L 280.264926 155.964971 
L 280.436687 155.935558 
L 281.123729 154.814413 
L 281.639011 153.989795 
L 282.326053 152.823553 
L 282.841335 151.941704 
L 283.528377 151.579048 
L 284.902461 151.102425 
L 285.417743 151.208126 
L 286.620067 151.870449 
L 287.307109 152.451332 
L 287.994152 152.680358 
L 288.509433 152.615704 
L 289.196476 152.241145 
L 289.539997 151.52204 
L 289.883518 150.414767 
L 290.742321 148.969643 
L 291.257602 148.122662 
L 292.116405 147.277825 
L 292.459926 147.064708 
L 293.146969 146.673191 
L 294.521053 146.6489 
L 294.864574 146.796615 
L 296.925701 148.10461 
L 297.440983 148.063772 
L 297.784504 147.794086 
L 298.643307 146.975792 
L 298.986828 146.202249 
L 299.50211 144.901078 
L 299.845631 144.427535 
L 300.360912 143.506635 
L 301.219715 142.681728 
L 301.734997 142.421848 
L 302.422039 142.049156 
L 303.452603 141.89708 
L 304.139645 142.3423 
L 304.654927 142.86331 
L 305.68549 143.729608 
L 306.029011 143.806176 
L 306.544293 143.637291 
L 306.887814 143.288918 
L 307.918377 141.515694 
L 308.261899 140.808481 
L 309.292462 138.124115 
L 309.635983 137.435762 
L 310.666546 136.280565 
L 311.69711 135.864864 
L 312.040631 136.102309 
L 312.555913 136.20977 
L 313.242955 136.978951 
L 313.929997 137.877586 
L 314.61704 138.503545 
L 314.960561 138.513629 
L 315.304082 138.296247 
L 315.647603 138.035598 
L 316.506406 136.467806 
L 317.021687 134.988178 
L 317.536969 133.245546 
L 318.224011 131.295162 
L 319.082814 129.765036 
L 319.598096 129.128645 
L 319.941617 128.877854 
L 320.80042 128.75718 
L 321.487462 128.816671 
L 321.830983 129.022252 
L 323.033307 130.118048 
L 323.376828 130.311455 
L 324.063871 130.454022 
L 324.407392 130.378147 
L 325.266195 129.637217 
L 326.81204 127.526498 
L 327.499082 126.696736 
L 327.842603 126.338739 
L 328.873167 125.956478 
L 329.90373 125.917471 
L 330.419012 125.994896 
L 331.621336 126.57022 
L 332.480139 127.03506 
L 333.338941 127.020283 
L 333.854223 126.792044 
L 334.369505 126.236868 
L 334.541265 126.130912 
L 335.056547 125.052913 
L 336.602392 122.790416 
L 337.117674 122.23236 
L 337.976477 121.920727 
L 338.491758 121.921376 
L 338.83528 121.953124 
L 339.522322 122.397784 
L 340.552885 123.664061 
L 340.896406 124.179199 
L 341.583449 124.518735 
L 341.92697 124.543865 
L 342.270491 124.374115 
L 342.614012 124.211252 
L 343.129294 123.782376 
L 343.644575 122.701169 
L 345.19042 120.91434 
L 346.049223 120.46675 
L 346.564505 120.198226 
L 347.251547 119.940917 
L 348.625632 119.99652 
L 349.484435 120.278034 
L 349.656195 120.128212 
L 349.999716 120.37546 
L 350.343238 120.618724 
L 351.03028 120.697305 
L 351.889083 120.284123 
L 352.232604 119.863641 
L 352.404364 119.770076 
L 353.263167 118.358758 
L 353.778449 118.010362 
L 354.465491 117.757349 
L 356.354857 117.397224 
L 357.385421 117.418174 
L 358.244224 117.499144 
L 358.415984 117.499144 
L 358.759505 117.823153 
L 360.13359 117.855741 
L 360.30535 117.821278 
L 360.648872 117.605589 
L 361.507674 117.349889 
L 361.851196 116.746911 
L 362.194717 116.596906 
L 364.255843 114.648979 
L 365.801689 114.382416 
L 366.14521 114.530148 
L 368.206337 116.024385 
L 368.721618 116.136484 
L 369.065139 116.088708 
L 369.752182 115.367988 
L 370.954506 112.574785 
L 372.32859 109.210717 
L 372.843872 108.384525 
L 373.359154 108.072039 
L 374.389717 107.785868 
L 375.24852 107.984108 
L 375.763801 108.71943 
L 376.279083 109.109072 
L 376.794365 109.720514 
L 377.137886 110.039551 
L 377.653168 110.181918 
L 377.996689 110.097196 
L 378.511971 109.643018 
L 379.199013 108.62675 
L 379.542534 107.616922 
L 380.057816 106.094074 
L 381.26014 103.676697 
L 381.775421 103.155128 
L 382.462464 102.599967 
L 382.977745 102.351916 
L 383.493027 102.403633 
L 385.210633 103.206373 
L 386.584717 104.028015 
L 387.099999 103.945308 
L 387.44352 103.711889 
L 387.958802 102.780584 
L 388.302323 101.846771 
L 388.817605 101.038043 
L 389.504647 99.347403 
L 390.191689 98.54107 
L 391.050492 97.652023 
L 391.909295 97.362836 
L 393.111619 97.380381 
L 393.6269 97.67287 
L 394.485703 98.486767 
L 395.000985 98.727428 
L 396.031548 98.768909 
L 396.37507 98.57743 
L 397.062112 98.078767 
L 397.920915 97.132763 
L 398.436196 96.397235 
L 398.951478 95.535422 
L 399.810281 94.647166 
L 400.497323 94.274991 
L 401.184365 94.145874 
L 401.356126 94.151579 
L 401.699647 94.329796 
L 402.043168 94.445906 
L 402.730211 95.239647 
L 404.104295 96.845587 
L 404.619577 96.958614 
L 404.963098 96.802577 
L 405.306619 96.431181 
L 405.65014 95.893333 
L 406.337182 93.52477 
L 408.054788 86.294431 
L 408.74183 84.88644 
L 409.600633 84.049535 
L 410.802957 83.712553 
L 411.146478 84.011858 
L 411.833521 84.793733 
L 412.864084 85.476395 
L 413.379366 85.571838 
L 414.066408 85.434937 
L 414.409929 85.266535 
L 414.75345 85.001701 
L 414.925211 84.647658 
L 415.096971 84.781491 
L 415.268732 84.599012 
L 415.612253 83.940733 
L 416.127535 83.500685 
L 416.814577 82.60679 
L 417.84514 81.93296 
L 418.532183 81.733377 
L 420.59331 81.805452 
L 420.936831 81.986905 
L 421.280352 82.041666 
L 422.310915 82.549425 
L 422.997957 82.526546 
L 423.85676 81.773613 
L 424.200281 80.672498 
L 424.543803 80.088169 
L 425.059084 78.890542 
L 426.433169 76.997803 
L 427.120211 76.5835 
L 427.807253 76.4748 
L 428.494296 76.539515 
L 429.86838 77.098105 
L 430.727183 78.033746 
L 431.414225 78.271712 
L 431.929507 78.137031 
L 432.616549 77.513592 
L 434.334155 74.518616 
L 435.192958 73.562846 
L 435.88 73.026217 
L 435.88 73.026217 
" style="fill:none;stroke:#e5ae38;stroke-width:0.8;"/>
   </g>
   <g id="patch_3">
    <path d="M 43.750625 243.895 
L 43.750625 39.91625 
" style="fill:none;stroke:#f0f0f0;stroke-linecap:square;stroke-linejoin:miter;stroke-width:3;"/>
   </g>
   <g id="patch_4">
    <path d="M 435.88 243.895 
L 435.88 39.91625 
" style="fill:none;stroke:#f0f0f0;stroke-linecap:square;stroke-linejoin:miter;stroke-width:3;"/>
   </g>
   <g id="patch_5">
    <path d="M 43.750625 243.895 
L 435.88 243.895 
" style="fill:none;stroke:#f0f0f0;stroke-linecap:square;stroke-linejoin:miter;stroke-width:3;"/>
   </g>
   <g id="patch_6">
    <path d="M 43.750625 39.91625 
L 435.88 39.91625 
" style="fill:none;stroke:#f0f0f0;stroke-linecap:square;stroke-linejoin:miter;stroke-width:3;"/>
   </g>
   <g id="text_19">
    <!-- Rolling mean and variance of CO2 levels -->
    <g transform="translate(138.425469 22.718437)scale(0.1 -0.1)">
     <defs>
      <path d="M 2841 2188 
Q 3044 2119 3236 1894 
Q 3428 1669 3622 1275 
L 4263 0 
L 3584 0 
L 2988 1197 
Q 2756 1666 2539 1819 
Q 2322 1972 1947 1972 
L 1259 1972 
L 1259 0 
L 628 0 
L 628 4666 
L 2053 4666 
Q 2853 4666 3247 4331 
Q 3641 3997 3641 3322 
Q 3641 2881 3436 2590 
Q 3231 2300 2841 2188 
z
M 1259 4147 
L 1259 2491 
L 2053 2491 
Q 2509 2491 2742 2702 
Q 2975 2913 2975 3322 
Q 2975 3731 2742 3939 
Q 2509 4147 2053 4147 
L 1259 4147 
z
" id="DejaVuSans-52" transform="scale(0.015625)"/>
      <path d="M 1959 3097 
Q 1497 3097 1228 2736 
Q 959 2375 959 1747 
Q 959 1119 1226 758 
Q 1494 397 1959 397 
Q 2419 397 2687 759 
Q 2956 1122 2956 1747 
Q 2956 2369 2687 2733 
Q 2419 3097 1959 3097 
z
M 1959 3584 
Q 2709 3584 3137 3096 
Q 3566 2609 3566 1747 
Q 3566 888 3137 398 
Q 2709 -91 1959 -91 
Q 1206 -91 779 398 
Q 353 888 353 1747 
Q 353 2609 779 3096 
Q 1206 3584 1959 3584 
z
" id="DejaVuSans-6f" transform="scale(0.015625)"/>
      <path d="M 2906 1791 
Q 2906 2416 2648 2759 
Q 2391 3103 1925 3103 
Q 1463 3103 1205 2759 
Q 947 2416 947 1791 
Q 947 1169 1205 825 
Q 1463 481 1925 481 
Q 2391 481 2648 825 
Q 2906 1169 2906 1791 
z
M 3481 434 
Q 3481 -459 3084 -895 
Q 2688 -1331 1869 -1331 
Q 1566 -1331 1297 -1286 
Q 1028 -1241 775 -1147 
L 775 -588 
Q 1028 -725 1275 -790 
Q 1522 -856 1778 -856 
Q 2344 -856 2625 -561 
Q 2906 -266 2906 331 
L 2906 616 
Q 2728 306 2450 153 
Q 2172 0 1784 0 
Q 1141 0 747 490 
Q 353 981 353 1791 
Q 353 2603 747 3093 
Q 1141 3584 1784 3584 
Q 2172 3584 2450 3431 
Q 2728 3278 2906 2969 
L 2906 3500 
L 3481 3500 
L 3481 434 
z
" id="DejaVuSans-67" transform="scale(0.015625)"/>
      <path d="M 3328 2828 
Q 3544 3216 3844 3400 
Q 4144 3584 4550 3584 
Q 5097 3584 5394 3201 
Q 5691 2819 5691 2113 
L 5691 0 
L 5113 0 
L 5113 2094 
Q 5113 2597 4934 2840 
Q 4756 3084 4391 3084 
Q 3944 3084 3684 2787 
Q 3425 2491 3425 1978 
L 3425 0 
L 2847 0 
L 2847 2094 
Q 2847 2600 2669 2842 
Q 2491 3084 2119 3084 
Q 1678 3084 1418 2786 
Q 1159 2488 1159 1978 
L 1159 0 
L 581 0 
L 581 3500 
L 1159 3500 
L 1159 2956 
Q 1356 3278 1631 3431 
Q 1906 3584 2284 3584 
Q 2666 3584 2933 3390 
Q 3200 3197 3328 2828 
z
" id="DejaVuSans-6d" transform="scale(0.015625)"/>
      <path d="M 2906 2969 
L 2906 4863 
L 3481 4863 
L 3481 0 
L 2906 0 
L 2906 525 
Q 2725 213 2448 61 
Q 2172 -91 1784 -91 
Q 1150 -91 751 415 
Q 353 922 353 1747 
Q 353 2572 751 3078 
Q 1150 3584 1784 3584 
Q 2172 3584 2448 3432 
Q 2725 3281 2906 2969 
z
M 947 1747 
Q 947 1113 1208 752 
Q 1469 391 1925 391 
Q 2381 391 2643 752 
Q 2906 1113 2906 1747 
Q 2906 2381 2643 2742 
Q 2381 3103 1925 3103 
Q 1469 3103 1208 2742 
Q 947 2381 947 1747 
z
" id="DejaVuSans-64" transform="scale(0.015625)"/>
      <path d="M 2631 2963 
Q 2534 3019 2420 3045 
Q 2306 3072 2169 3072 
Q 1681 3072 1420 2755 
Q 1159 2438 1159 1844 
L 1159 0 
L 581 0 
L 581 3500 
L 1159 3500 
L 1159 2956 
Q 1341 3275 1631 3429 
Q 1922 3584 2338 3584 
Q 2397 3584 2469 3576 
Q 2541 3569 2628 3553 
L 2631 2963 
z
" id="DejaVuSans-72" transform="scale(0.015625)"/>
      <path d="M 3122 3366 
L 3122 2828 
Q 2878 2963 2633 3030 
Q 2388 3097 2138 3097 
Q 1578 3097 1268 2742 
Q 959 2388 959 1747 
Q 959 1106 1268 751 
Q 1578 397 2138 397 
Q 2388 397 2633 464 
Q 2878 531 3122 666 
L 3122 134 
Q 2881 22 2623 -34 
Q 2366 -91 2075 -91 
Q 1284 -91 818 406 
Q 353 903 353 1747 
Q 353 2603 823 3093 
Q 1294 3584 2113 3584 
Q 2378 3584 2631 3529 
Q 2884 3475 3122 3366 
z
" id="DejaVuSans-63" transform="scale(0.015625)"/>
      <path d="M 2375 4863 
L 2375 4384 
L 1825 4384 
Q 1516 4384 1395 4259 
Q 1275 4134 1275 3809 
L 1275 3500 
L 2222 3500 
L 2222 3053 
L 1275 3053 
L 1275 0 
L 697 0 
L 697 3053 
L 147 3053 
L 147 3500 
L 697 3500 
L 697 3744 
Q 697 4328 969 4595 
Q 1241 4863 1831 4863 
L 2375 4863 
z
" id="DejaVuSans-66" transform="scale(0.015625)"/>
     </defs>
     <use xlink:href="#DejaVuSans-52"/>
     <use x="64.982422" xlink:href="#DejaVuSans-6f"/>
     <use x="126.164062" xlink:href="#DejaVuSans-6c"/>
     <use x="153.947266" xlink:href="#DejaVuSans-6c"/>
     <use x="181.730469" xlink:href="#DejaVuSans-69"/>
     <use x="209.513672" xlink:href="#DejaVuSans-6e"/>
     <use x="272.892578" xlink:href="#DejaVuSans-67"/>
     <use x="336.369141" xlink:href="#DejaVuSans-20"/>
     <use x="368.15625" xlink:href="#DejaVuSans-6d"/>
     <use x="465.568359" xlink:href="#DejaVuSans-65"/>
     <use x="527.091797" xlink:href="#DejaVuSans-61"/>
     <use x="588.371094" xlink:href="#DejaVuSans-6e"/>
     <use x="651.75" xlink:href="#DejaVuSans-20"/>
     <use x="683.537109" xlink:href="#DejaVuSans-61"/>
     <use x="744.816406" xlink:href="#DejaVuSans-6e"/>
     <use x="808.195312" xlink:href="#DejaVuSans-64"/>
     <use x="871.671875" xlink:href="#DejaVuSans-20"/>
     <use x="903.458984" xlink:href="#DejaVuSans-76"/>
     <use x="962.638672" xlink:href="#DejaVuSans-61"/>
     <use x="1023.917969" xlink:href="#DejaVuSans-72"/>
     <use x="1065.03125" xlink:href="#DejaVuSans-69"/>
     <use x="1092.814453" xlink:href="#DejaVuSans-61"/>
     <use x="1154.09375" xlink:href="#DejaVuSans-6e"/>
     <use x="1217.472656" xlink:href="#DejaVuSans-63"/>
     <use x="1272.453125" xlink:href="#DejaVuSans-65"/>
     <use x="1333.976562" xlink:href="#DejaVuSans-20"/>
     <use x="1365.763672" xlink:href="#DejaVuSans-6f"/>
     <use x="1426.945312" xlink:href="#DejaVuSans-66"/>
     <use x="1462.150391" xlink:href="#DejaVuSans-20"/>
     <use x="1493.9375" xlink:href="#DejaVuSans-43"/>
     <use x="1563.761719" xlink:href="#DejaVuSans-4f"/>
     <use x="1642.472656" xlink:href="#DejaVuSans-32"/>
     <use x="1706.095703" xlink:href="#DejaVuSans-20"/>
     <use x="1737.882812" xlink:href="#DejaVuSans-6c"/>
     <use x="1765.666016" xlink:href="#DejaVuSans-65"/>
     <use x="1827.189453" xlink:href="#DejaVuSans-76"/>
     <use x="1886.369141" xlink:href="#DejaVuSans-65"/>
     <use x="1947.892578" xlink:href="#DejaVuSans-6c"/>
     <use x="1975.675781" xlink:href="#DejaVuSans-73"/>
    </g>
    <!-- in Mauai Hawaii from 1958 to 2001 -->
    <g transform="translate(151.865313 33.91625)scale(0.1 -0.1)">
     <use xlink:href="#DejaVuSans-69"/>
     <use x="27.783203" xlink:href="#DejaVuSans-6e"/>
     <use x="91.162109" xlink:href="#DejaVuSans-20"/>
     <use x="122.949219" xlink:href="#DejaVuSans-4d"/>
     <use x="209.228516" xlink:href="#DejaVuSans-61"/>
     <use x="270.507812" xlink:href="#DejaVuSans-75"/>
     <use x="333.886719" xlink:href="#DejaVuSans-61"/>
     <use x="395.166016" xlink:href="#DejaVuSans-69"/>
     <use x="422.949219" xlink:href="#DejaVuSans-20"/>
     <use x="454.736328" xlink:href="#DejaVuSans-48"/>
     <use x="529.931641" xlink:href="#DejaVuSans-61"/>
     <use x="591.210938" xlink:href="#DejaVuSans-77"/>
     <use x="672.998047" xlink:href="#DejaVuSans-61"/>
     <use x="734.277344" xlink:href="#DejaVuSans-69"/>
     <use x="762.060547" xlink:href="#DejaVuSans-69"/>
     <use x="789.84375" xlink:href="#DejaVuSans-20"/>
     <use x="821.630859" xlink:href="#DejaVuSans-66"/>
     <use x="856.835938" xlink:href="#DejaVuSans-72"/>
     <use x="895.699219" xlink:href="#DejaVuSans-6f"/>
     <use x="956.880859" xlink:href="#DejaVuSans-6d"/>
     <use x="1054.292969" xlink:href="#DejaVuSans-20"/>
     <use x="1086.080078" xlink:href="#DejaVuSans-31"/>
     <use x="1149.703125" xlink:href="#DejaVuSans-39"/>
     <use x="1213.326172" xlink:href="#DejaVuSans-35"/>
     <use x="1276.949219" xlink:href="#DejaVuSans-38"/>
     <use x="1340.572266" xlink:href="#DejaVuSans-20"/>
     <use x="1372.359375" xlink:href="#DejaVuSans-74"/>
     <use x="1411.568359" xlink:href="#DejaVuSans-6f"/>
     <use x="1472.75" xlink:href="#DejaVuSans-20"/>
     <use x="1504.537109" xlink:href="#DejaVuSans-32"/>
     <use x="1568.160156" xlink:href="#DejaVuSans-30"/>
     <use x="1631.783203" xlink:href="#DejaVuSans-30"/>
     <use x="1695.40625" xlink:href="#DejaVuSans-31"/>
    </g>
   </g>
   <g id="legend_1">
    <g id="patch_7">
     <path d="M 53.550625 112.764375 
L 139.368437 112.764375 
Q 142.168438 112.764375 142.168438 109.964375 
L 142.168438 49.71625 
Q 142.168438 46.91625 139.368437 46.91625 
L 53.550625 46.91625 
Q 50.750625 46.91625 50.750625 49.71625 
L 50.750625 109.964375 
Q 50.750625 112.764375 53.550625 112.764375 
z
" style="fill:#f0f0f0;opacity:0.8;stroke:#cccccc;stroke-linejoin:miter;stroke-width:0.5;"/>
    </g>
    <g id="line2d_74">
     <path d="M 56.350625 58.254063 
L 84.350625 58.254063 
" style="fill:none;stroke:#008fd5;stroke-width:0.8;"/>
    </g>
    <g id="line2d_75"/>
    <g id="text_20">
     <!-- co2 -->
     <g transform="translate(95.550625 63.154063)scale(0.14 -0.14)">
      <use xlink:href="#DejaVuSans-63"/>
      <use x="54.980469" xlink:href="#DejaVuSans-6f"/>
      <use x="116.162109" xlink:href="#DejaVuSans-32"/>
     </g>
    </g>
    <g id="line2d_76">
     <path d="M 56.350625 78.803438 
L 84.350625 78.803438 
" style="fill:none;stroke:#fc4f30;stroke-width:0.8;"/>
    </g>
    <g id="line2d_77"/>
    <g id="text_21">
     <!-- upper -->
     <g transform="translate(95.550625 83.703438)scale(0.14 -0.14)">
      <defs>
       <path d="M 1159 525 
L 1159 -1331 
L 581 -1331 
L 581 3500 
L 1159 3500 
L 1159 2969 
Q 1341 3281 1617 3432 
Q 1894 3584 2278 3584 
Q 2916 3584 3314 3078 
Q 3713 2572 3713 1747 
Q 3713 922 3314 415 
Q 2916 -91 2278 -91 
Q 1894 -91 1617 61 
Q 1341 213 1159 525 
z
M 3116 1747 
Q 3116 2381 2855 2742 
Q 2594 3103 2138 3103 
Q 1681 3103 1420 2742 
Q 1159 2381 1159 1747 
Q 1159 1113 1420 752 
Q 1681 391 2138 391 
Q 2594 391 2855 752 
Q 3116 1113 3116 1747 
z
" id="DejaVuSans-70" transform="scale(0.015625)"/>
      </defs>
      <use xlink:href="#DejaVuSans-75"/>
      <use x="63.378906" xlink:href="#DejaVuSans-70"/>
      <use x="126.855469" xlink:href="#DejaVuSans-70"/>
      <use x="190.332031" xlink:href="#DejaVuSans-65"/>
      <use x="251.855469" xlink:href="#DejaVuSans-72"/>
     </g>
    </g>
    <g id="line2d_78">
     <path d="M 56.350625 99.352812 
L 84.350625 99.352812 
" style="fill:none;stroke:#e5ae38;stroke-width:0.8;"/>
    </g>
    <g id="line2d_79"/>
    <g id="text_22">
     <!-- lower -->
     <g transform="translate(95.550625 104.252813)scale(0.14 -0.14)">
      <use xlink:href="#DejaVuSans-6c"/>
      <use x="27.783203" xlink:href="#DejaVuSans-6f"/>
      <use x="88.964844" xlink:href="#DejaVuSans-77"/>
      <use x="170.751953" xlink:href="#DejaVuSans-65"/>
      <use x="232.275391" xlink:href="#DejaVuSans-72"/>
     </g>
    </g>
   </g>
  </g>
 </g>
 <defs>
  <clipPath id="p5dda29c75f">
   <rect height="203.97875" width="392.129375" x="43.750625" y="39.91625"/>
  </clipPath>
 </defs>
</svg>
