<?xml version="1.0" encoding="utf-8" standalone="no"?>
<!DOCTYPE svg PUBLIC "-//W3C//DTD SVG 1.1//EN"
  "http://www.w3.org/Graphics/SVG/1.1/DTD/svg11.dtd">
<svg height="282pt" version="1.1" viewBox="0 0 451 282" width="451pt" xmlns="http://www.w3.org/2000/svg" xmlns:xlink="http://www.w3.org/1999/xlink">
 <metadata>
  <rdf:RDF xmlns:cc="http://creativecommons.org/ns#" xmlns:dc="http://purl.org/dc/elements/1.1/" xmlns:rdf="http://www.w3.org/1999/02/22-rdf-syntax-ns#">
   <cc:Work>
    <dc:type rdf:resource="http://purl.org/dc/dcmitype/StillImage"/>
    <dc:date>2022-02-04T11:13:03.290011</dc:date>
    <dc:format>image/svg+xml</dc:format>
    <dc:creator>
     <cc:Agent>
      <dc:title>Matplotlib v3.4.3, https://matplotlib.org/</dc:title>
     </cc:Agent>
    </dc:creator>
   </cc:Work>
  </rdf:RDF>
 </metadata>
 <defs>
  <style type="text/css">*{stroke-linecap:butt;stroke-linejoin:round;}</style>
 </defs>
 <g id="figure_1">
  <g id="patch_1">
   <path d="M 0 282 
L 451 282 
L 451 0 
L 0 0 
z
" style="fill:#f0f0f0;"/>
  </g>
  <g id="axes_1">
   <g id="patch_2">
    <path d="M 26.255 237.313875 
L 435.88 237.313875 
L 435.88 15.12 
L 26.255 15.12 
z
" style="fill:#f0f0f0;"/>
   </g>
   <g id="matplotlib.axis_1">
    <g id="xtick_1">
     <g id="line2d_1">
      <path clip-path="url(#p6d57805ca4)" d="M 67.631263 237.313875 
L 67.631263 15.12 
" style="fill:none;stroke:#cbcbcb;"/>
     </g>
     <g id="line2d_2"/>
     <g id="text_1">
      <!-- 1870 -->
      <g transform="translate(59.996263 245.372937)scale(0.06 -0.06)">
       <defs>
        <path d="M 794 531 
L 1825 531 
L 1825 4091 
L 703 3866 
L 703 4441 
L 1819 4666 
L 2450 4666 
L 2450 531 
L 3481 531 
L 3481 0 
L 794 0 
L 794 531 
z
" id="DejaVuSans-31" transform="scale(0.015625)"/>
        <path d="M 2034 2216 
Q 1584 2216 1326 1975 
Q 1069 1734 1069 1313 
Q 1069 891 1326 650 
Q 1584 409 2034 409 
Q 2484 409 2743 651 
Q 3003 894 3003 1313 
Q 3003 1734 2745 1975 
Q 2488 2216 2034 2216 
z
M 1403 2484 
Q 997 2584 770 2862 
Q 544 3141 544 3541 
Q 544 4100 942 4425 
Q 1341 4750 2034 4750 
Q 2731 4750 3128 4425 
Q 3525 4100 3525 3541 
Q 3525 3141 3298 2862 
Q 3072 2584 2669 2484 
Q 3125 2378 3379 2068 
Q 3634 1759 3634 1313 
Q 3634 634 3220 271 
Q 2806 -91 2034 -91 
Q 1263 -91 848 271 
Q 434 634 434 1313 
Q 434 1759 690 2068 
Q 947 2378 1403 2484 
z
M 1172 3481 
Q 1172 3119 1398 2916 
Q 1625 2713 2034 2713 
Q 2441 2713 2670 2916 
Q 2900 3119 2900 3481 
Q 2900 3844 2670 4047 
Q 2441 4250 2034 4250 
Q 1625 4250 1398 4047 
Q 1172 3844 1172 3481 
z
" id="DejaVuSans-38" transform="scale(0.015625)"/>
        <path d="M 525 4666 
L 3525 4666 
L 3525 4397 
L 1831 0 
L 1172 0 
L 2766 4134 
L 525 4134 
L 525 4666 
z
" id="DejaVuSans-37" transform="scale(0.015625)"/>
        <path d="M 2034 4250 
Q 1547 4250 1301 3770 
Q 1056 3291 1056 2328 
Q 1056 1369 1301 889 
Q 1547 409 2034 409 
Q 2525 409 2770 889 
Q 3016 1369 3016 2328 
Q 3016 3291 2770 3770 
Q 2525 4250 2034 4250 
z
M 2034 4750 
Q 2819 4750 3233 4129 
Q 3647 3509 3647 2328 
Q 3647 1150 3233 529 
Q 2819 -91 2034 -91 
Q 1250 -91 836 529 
Q 422 1150 422 2328 
Q 422 3509 836 4129 
Q 1250 4750 2034 4750 
z
" id="DejaVuSans-30" transform="scale(0.015625)"/>
       </defs>
       <use xlink:href="#DejaVuSans-31"/>
       <use x="63.623047" xlink:href="#DejaVuSans-38"/>
       <use x="127.246094" xlink:href="#DejaVuSans-37"/>
       <use x="190.869141" xlink:href="#DejaVuSans-30"/>
      </g>
     </g>
    </g>
    <g id="xtick_2">
     <g id="line2d_3">
      <path clip-path="url(#p6d57805ca4)" d="M 171.071919 237.313875 
L 171.071919 15.12 
" style="fill:none;stroke:#cbcbcb;"/>
     </g>
     <g id="line2d_4"/>
     <g id="text_2">
      <!-- 1895 -->
      <g transform="translate(163.436919 245.372937)scale(0.06 -0.06)">
       <defs>
        <path d="M 703 97 
L 703 672 
Q 941 559 1184 500 
Q 1428 441 1663 441 
Q 2288 441 2617 861 
Q 2947 1281 2994 2138 
Q 2813 1869 2534 1725 
Q 2256 1581 1919 1581 
Q 1219 1581 811 2004 
Q 403 2428 403 3163 
Q 403 3881 828 4315 
Q 1253 4750 1959 4750 
Q 2769 4750 3195 4129 
Q 3622 3509 3622 2328 
Q 3622 1225 3098 567 
Q 2575 -91 1691 -91 
Q 1453 -91 1209 -44 
Q 966 3 703 97 
z
M 1959 2075 
Q 2384 2075 2632 2365 
Q 2881 2656 2881 3163 
Q 2881 3666 2632 3958 
Q 2384 4250 1959 4250 
Q 1534 4250 1286 3958 
Q 1038 3666 1038 3163 
Q 1038 2656 1286 2365 
Q 1534 2075 1959 2075 
z
" id="DejaVuSans-39" transform="scale(0.015625)"/>
        <path d="M 691 4666 
L 3169 4666 
L 3169 4134 
L 1269 4134 
L 1269 2991 
Q 1406 3038 1543 3061 
Q 1681 3084 1819 3084 
Q 2600 3084 3056 2656 
Q 3513 2228 3513 1497 
Q 3513 744 3044 326 
Q 2575 -91 1722 -91 
Q 1428 -91 1123 -41 
Q 819 9 494 109 
L 494 744 
Q 775 591 1075 516 
Q 1375 441 1709 441 
Q 2250 441 2565 725 
Q 2881 1009 2881 1497 
Q 2881 1984 2565 2268 
Q 2250 2553 1709 2553 
Q 1456 2553 1204 2497 
Q 953 2441 691 2322 
L 691 4666 
z
" id="DejaVuSans-35" transform="scale(0.015625)"/>
       </defs>
       <use xlink:href="#DejaVuSans-31"/>
       <use x="63.623047" xlink:href="#DejaVuSans-38"/>
       <use x="127.246094" xlink:href="#DejaVuSans-39"/>
       <use x="190.869141" xlink:href="#DejaVuSans-35"/>
      </g>
     </g>
    </g>
    <g id="xtick_3">
     <g id="line2d_5">
      <path clip-path="url(#p6d57805ca4)" d="M 274.512576 237.313875 
L 274.512576 15.12 
" style="fill:none;stroke:#cbcbcb;"/>
     </g>
     <g id="line2d_6"/>
     <g id="text_3">
      <!-- 1920 -->
      <g transform="translate(266.877576 245.372937)scale(0.06 -0.06)">
       <defs>
        <path d="M 1228 531 
L 3431 531 
L 3431 0 
L 469 0 
L 469 531 
Q 828 903 1448 1529 
Q 2069 2156 2228 2338 
Q 2531 2678 2651 2914 
Q 2772 3150 2772 3378 
Q 2772 3750 2511 3984 
Q 2250 4219 1831 4219 
Q 1534 4219 1204 4116 
Q 875 4013 500 3803 
L 500 4441 
Q 881 4594 1212 4672 
Q 1544 4750 1819 4750 
Q 2544 4750 2975 4387 
Q 3406 4025 3406 3419 
Q 3406 3131 3298 2873 
Q 3191 2616 2906 2266 
Q 2828 2175 2409 1742 
Q 1991 1309 1228 531 
z
" id="DejaVuSans-32" transform="scale(0.015625)"/>
       </defs>
       <use xlink:href="#DejaVuSans-31"/>
       <use x="63.623047" xlink:href="#DejaVuSans-39"/>
       <use x="127.246094" xlink:href="#DejaVuSans-32"/>
       <use x="190.869141" xlink:href="#DejaVuSans-30"/>
      </g>
     </g>
    </g>
    <g id="xtick_4">
     <g id="line2d_7">
      <path clip-path="url(#p6d57805ca4)" d="M 377.953232 237.313875 
L 377.953232 15.12 
" style="fill:none;stroke:#cbcbcb;"/>
     </g>
     <g id="line2d_8"/>
     <g id="text_4">
      <!-- 1945 -->
      <g transform="translate(370.318232 245.372937)scale(0.06 -0.06)">
       <defs>
        <path d="M 2419 4116 
L 825 1625 
L 2419 1625 
L 2419 4116 
z
M 2253 4666 
L 3047 4666 
L 3047 1625 
L 3713 1625 
L 3713 1100 
L 3047 1100 
L 3047 0 
L 2419 0 
L 2419 1100 
L 313 1100 
L 313 1709 
L 2253 4666 
z
" id="DejaVuSans-34" transform="scale(0.015625)"/>
       </defs>
       <use xlink:href="#DejaVuSans-31"/>
       <use x="63.623047" xlink:href="#DejaVuSans-39"/>
       <use x="127.246094" xlink:href="#DejaVuSans-34"/>
       <use x="190.869141" xlink:href="#DejaVuSans-35"/>
      </g>
     </g>
    </g>
    <g id="xtick_5">
     <g id="line2d_9"/>
    </g>
    <g id="xtick_6">
     <g id="line2d_10"/>
    </g>
    <g id="xtick_7">
     <g id="line2d_11"/>
    </g>
    <g id="xtick_8">
     <g id="line2d_12"/>
    </g>
    <g id="xtick_9">
     <g id="line2d_13"/>
    </g>
    <g id="xtick_10">
     <g id="line2d_14"/>
    </g>
    <g id="xtick_11">
     <g id="line2d_15"/>
    </g>
    <g id="xtick_12">
     <g id="line2d_16"/>
    </g>
    <g id="xtick_13">
     <g id="line2d_17"/>
    </g>
    <g id="xtick_14">
     <g id="line2d_18"/>
    </g>
    <g id="xtick_15">
     <g id="line2d_19"/>
    </g>
    <g id="xtick_16">
     <g id="line2d_20"/>
    </g>
    <g id="xtick_17">
     <g id="line2d_21"/>
    </g>
    <g id="xtick_18">
     <g id="line2d_22"/>
    </g>
    <g id="xtick_19">
     <g id="line2d_23"/>
    </g>
    <g id="xtick_20">
     <g id="line2d_24"/>
    </g>
    <g id="text_5">
     <!-- date -->
     <g transform="translate(212.1255 263.386125)scale(0.168 -0.168)">
      <defs>
       <path d="M 2906 2969 
L 2906 4863 
L 3481 4863 
L 3481 0 
L 2906 0 
L 2906 525 
Q 2725 213 2448 61 
Q 2172 -91 1784 -91 
Q 1150 -91 751 415 
Q 353 922 353 1747 
Q 353 2572 751 3078 
Q 1150 3584 1784 3584 
Q 2172 3584 2448 3432 
Q 2725 3281 2906 2969 
z
M 947 1747 
Q 947 1113 1208 752 
Q 1469 391 1925 391 
Q 2381 391 2643 752 
Q 2906 1113 2906 1747 
Q 2906 2381 2643 2742 
Q 2381 3103 1925 3103 
Q 1469 3103 1208 2742 
Q 947 2381 947 1747 
z
" id="DejaVuSans-64" transform="scale(0.015625)"/>
       <path d="M 2194 1759 
Q 1497 1759 1228 1600 
Q 959 1441 959 1056 
Q 959 750 1161 570 
Q 1363 391 1709 391 
Q 2188 391 2477 730 
Q 2766 1069 2766 1631 
L 2766 1759 
L 2194 1759 
z
M 3341 1997 
L 3341 0 
L 2766 0 
L 2766 531 
Q 2569 213 2275 61 
Q 1981 -91 1556 -91 
Q 1019 -91 701 211 
Q 384 513 384 1019 
Q 384 1609 779 1909 
Q 1175 2209 1959 2209 
L 2766 2209 
L 2766 2266 
Q 2766 2663 2505 2880 
Q 2244 3097 1772 3097 
Q 1472 3097 1187 3025 
Q 903 2953 641 2809 
L 641 3341 
Q 956 3463 1253 3523 
Q 1550 3584 1831 3584 
Q 2591 3584 2966 3190 
Q 3341 2797 3341 1997 
z
" id="DejaVuSans-61" transform="scale(0.015625)"/>
       <path d="M 1172 4494 
L 1172 3500 
L 2356 3500 
L 2356 3053 
L 1172 3053 
L 1172 1153 
Q 1172 725 1289 603 
Q 1406 481 1766 481 
L 2356 481 
L 2356 0 
L 1766 0 
Q 1100 0 847 248 
Q 594 497 594 1153 
L 594 3053 
L 172 3053 
L 172 3500 
L 594 3500 
L 594 4494 
L 1172 4494 
z
" id="DejaVuSans-74" transform="scale(0.015625)"/>
       <path d="M 3597 1894 
L 3597 1613 
L 953 1613 
Q 991 1019 1311 708 
Q 1631 397 2203 397 
Q 2534 397 2845 478 
Q 3156 559 3463 722 
L 3463 178 
Q 3153 47 2828 -22 
Q 2503 -91 2169 -91 
Q 1331 -91 842 396 
Q 353 884 353 1716 
Q 353 2575 817 3079 
Q 1281 3584 2069 3584 
Q 2775 3584 3186 3129 
Q 3597 2675 3597 1894 
z
M 3022 2063 
Q 3016 2534 2758 2815 
Q 2500 3097 2075 3097 
Q 1594 3097 1305 2825 
Q 1016 2553 972 2059 
L 3022 2063 
z
" id="DejaVuSans-65" transform="scale(0.015625)"/>
      </defs>
      <use xlink:href="#DejaVuSans-64"/>
      <use x="63.476562" xlink:href="#DejaVuSans-61"/>
      <use x="124.755859" xlink:href="#DejaVuSans-74"/>
      <use x="163.964844" xlink:href="#DejaVuSans-65"/>
     </g>
    </g>
   </g>
   <g id="matplotlib.axis_2">
    <g id="ytick_1">
     <g id="line2d_25">
      <path clip-path="url(#p6d57805ca4)" d="M 26.255 227.214153 
L 435.88 227.214153 
" style="fill:none;stroke:#cbcbcb;"/>
     </g>
     <g id="line2d_26"/>
     <g id="text_6">
      <!-- 0 -->
      <g transform="translate(18.9375 229.493685)scale(0.06 -0.06)">
       <use xlink:href="#DejaVuSans-30"/>
      </g>
     </g>
    </g>
    <g id="ytick_2">
     <g id="line2d_27">
      <path clip-path="url(#p6d57805ca4)" d="M 26.255 193.548415 
L 435.88 193.548415 
" style="fill:none;stroke:#cbcbcb;"/>
     </g>
     <g id="line2d_28"/>
     <g id="text_7">
      <!-- 2 -->
      <g transform="translate(18.9375 195.827946)scale(0.06 -0.06)">
       <use xlink:href="#DejaVuSans-32"/>
      </g>
     </g>
    </g>
    <g id="ytick_3">
     <g id="line2d_29">
      <path clip-path="url(#p6d57805ca4)" d="M 26.255 159.882676 
L 435.88 159.882676 
" style="fill:none;stroke:#cbcbcb;"/>
     </g>
     <g id="line2d_30"/>
     <g id="text_8">
      <!-- 4 -->
      <g transform="translate(18.9375 162.162207)scale(0.06 -0.06)">
       <use xlink:href="#DejaVuSans-34"/>
      </g>
     </g>
    </g>
    <g id="ytick_4">
     <g id="line2d_31">
      <path clip-path="url(#p6d57805ca4)" d="M 26.255 126.216938 
L 435.88 126.216938 
" style="fill:none;stroke:#cbcbcb;"/>
     </g>
     <g id="line2d_32"/>
     <g id="text_9">
      <!-- 6 -->
      <g transform="translate(18.9375 128.496469)scale(0.06 -0.06)">
       <defs>
        <path d="M 2113 2584 
Q 1688 2584 1439 2293 
Q 1191 2003 1191 1497 
Q 1191 994 1439 701 
Q 1688 409 2113 409 
Q 2538 409 2786 701 
Q 3034 994 3034 1497 
Q 3034 2003 2786 2293 
Q 2538 2584 2113 2584 
z
M 3366 4563 
L 3366 3988 
Q 3128 4100 2886 4159 
Q 2644 4219 2406 4219 
Q 1781 4219 1451 3797 
Q 1122 3375 1075 2522 
Q 1259 2794 1537 2939 
Q 1816 3084 2150 3084 
Q 2853 3084 3261 2657 
Q 3669 2231 3669 1497 
Q 3669 778 3244 343 
Q 2819 -91 2113 -91 
Q 1303 -91 875 529 
Q 447 1150 447 2328 
Q 447 3434 972 4092 
Q 1497 4750 2381 4750 
Q 2619 4750 2861 4703 
Q 3103 4656 3366 4563 
z
" id="DejaVuSans-36" transform="scale(0.015625)"/>
       </defs>
       <use xlink:href="#DejaVuSans-36"/>
      </g>
     </g>
    </g>
    <g id="ytick_5">
     <g id="line2d_33">
      <path clip-path="url(#p6d57805ca4)" d="M 26.255 92.551199 
L 435.88 92.551199 
" style="fill:none;stroke:#cbcbcb;"/>
     </g>
     <g id="line2d_34"/>
     <g id="text_10">
      <!-- 8 -->
      <g transform="translate(18.9375 94.83073)scale(0.06 -0.06)">
       <use xlink:href="#DejaVuSans-38"/>
      </g>
     </g>
    </g>
    <g id="ytick_6">
     <g id="line2d_35">
      <path clip-path="url(#p6d57805ca4)" d="M 26.255 58.88546 
L 435.88 58.88546 
" style="fill:none;stroke:#cbcbcb;"/>
     </g>
     <g id="line2d_36"/>
     <g id="text_11">
      <!-- 10 -->
      <g transform="translate(15.12 61.164991)scale(0.06 -0.06)">
       <use xlink:href="#DejaVuSans-31"/>
       <use x="63.623047" xlink:href="#DejaVuSans-30"/>
      </g>
     </g>
    </g>
    <g id="ytick_7">
     <g id="line2d_37">
      <path clip-path="url(#p6d57805ca4)" d="M 26.255 25.219722 
L 435.88 25.219722 
" style="fill:none;stroke:#cbcbcb;"/>
     </g>
     <g id="line2d_38"/>
     <g id="text_12">
      <!-- 12 -->
      <g transform="translate(15.12 27.499253)scale(0.06 -0.06)">
       <use xlink:href="#DejaVuSans-31"/>
       <use x="63.623047" xlink:href="#DejaVuSans-32"/>
      </g>
     </g>
    </g>
   </g>
   <g id="patch_3">
    <path clip-path="url(#p6d57805ca4)" d="M 191.760051 237.313875 
L 191.760051 15.12 
L 253.824444 15.12 
L 253.824444 237.313875 
z
" style="fill:#ff0000;opacity:0.3;stroke:#ff0000;stroke-linejoin:miter;stroke-width:0.5;"/>
   </g>
   <g id="patch_4">
    <path clip-path="url(#p6d57805ca4)" d="M 26.255 126.216938 
L 26.255 92.551199 
L 435.88 92.551199 
L 435.88 126.216938 
z
" style="fill:#008000;opacity:0.3;stroke:#008000;stroke-linejoin:miter;stroke-width:0.5;"/>
   </g>
   <g id="line2d_39">
    <path clip-path="url(#p6d57805ca4)" d="M 26.255 143.049807 
L 30.392626 176.715545 
L 34.530253 227.214153 
L 38.667879 193.548415 
L 42.805505 227.214153 
L 46.943131 176.715545 
L 51.080758 193.548415 
L 55.218384 176.715545 
L 59.35601 126.216938 
L 63.493636 210.381284 
L 67.631263 193.548415 
L 71.768889 210.381284 
L 75.906515 193.548415 
L 80.044141 210.381284 
L 84.181768 176.715545 
L 88.319394 176.715545 
L 92.45702 176.715545 
L 96.594646 143.049807 
L 100.732273 193.548415 
L 104.869899 159.882676 
L 109.007525 159.882676 
L 113.145152 227.214153 
L 117.282778 193.548415 
L 121.420404 176.715545 
L 125.55803 109.384068 
L 129.695657 25.219722 
L 133.833283 176.715545 
L 137.970909 58.88546 
L 142.108535 75.71833 
L 146.246162 193.548415 
L 150.383788 176.715545 
L 154.521414 109.384068 
L 158.65904 109.384068 
L 162.796667 193.548415 
L 166.934293 176.715545 
L 171.071919 176.715545 
L 175.209545 126.216938 
L 179.347172 193.548415 
L 183.484798 159.882676 
L 187.622424 176.715545 
L 191.760051 143.049807 
L 195.897677 193.548415 
L 200.035303 193.548415 
L 204.172929 159.882676 
L 208.310556 227.214153 
L 212.448182 159.882676 
L 216.585808 193.548415 
L 220.723434 143.049807 
L 224.861061 193.548415 
L 228.998687 176.715545 
L 233.136313 176.715545 
L 237.273939 126.216938 
L 241.411566 143.049807 
L 245.549192 92.551199 
L 249.686818 176.715545 
L 253.824444 126.216938 
L 257.962071 126.216938 
L 262.099697 227.214153 
L 266.237323 143.049807 
L 270.374949 193.548415 
L 274.512576 193.548415 
L 278.650202 193.548415 
L 282.787828 126.216938 
L 286.925455 176.715545 
L 291.063081 159.882676 
L 295.200707 159.882676 
L 299.338333 193.548415 
L 303.47596 193.548415 
L 307.613586 159.882676 
L 311.751212 109.384068 
L 315.888838 143.049807 
L 320.026465 176.715545 
L 324.164091 176.715545 
L 328.301717 227.214153 
L 332.439343 193.548415 
L 336.57697 193.548415 
L 340.714596 193.548415 
L 344.852222 210.381284 
L 348.989848 176.715545 
L 353.127475 159.882676 
L 357.265101 193.548415 
L 361.402727 193.548415 
L 365.540354 210.381284 
L 369.67798 210.381284 
L 373.815606 210.381284 
L 377.953232 193.548415 
L 382.090859 210.381284 
L 386.228485 159.882676 
L 390.366111 159.882676 
L 394.503737 176.715545 
L 398.641364 193.548415 
L 402.77899 210.381284 
L 406.916616 159.882676 
L 411.054242 210.381284 
L 415.191869 210.381284 
L 419.329495 210.381284 
L 423.467121 227.214153 
L 427.604747 227.214153 
L 431.742374 193.548415 
L 435.88 227.214153 
" style="fill:none;stroke:#0000ff;stroke-width:4;"/>
   </g>
   <g id="patch_5">
    <path d="M 26.255 237.313875 
L 26.255 15.12 
" style="fill:none;stroke:#f0f0f0;stroke-linecap:square;stroke-linejoin:miter;stroke-width:3;"/>
   </g>
   <g id="patch_6">
    <path d="M 435.88 237.313875 
L 435.88 15.12 
" style="fill:none;stroke:#f0f0f0;stroke-linecap:square;stroke-linejoin:miter;stroke-width:3;"/>
   </g>
   <g id="patch_7">
    <path d="M 26.255 237.313875 
L 435.88 237.313875 
" style="fill:none;stroke:#f0f0f0;stroke-linecap:square;stroke-linejoin:miter;stroke-width:3;"/>
   </g>
   <g id="patch_8">
    <path d="M 26.255 15.12 
L 435.88 15.12 
" style="fill:none;stroke:#f0f0f0;stroke-linecap:square;stroke-linejoin:miter;stroke-width:3;"/>
   </g>
   <g id="legend_1">
    <g id="patch_9">
     <path d="M 372.729062 46.869375 
L 426.08 46.869375 
Q 428.88 46.869375 428.88 44.069375 
L 428.88 24.92 
Q 428.88 22.12 426.08 22.12 
L 372.729062 22.12 
Q 369.929062 22.12 369.929062 24.92 
L 369.929062 44.069375 
Q 369.929062 46.869375 372.729062 46.869375 
z
" style="fill:#f0f0f0;opacity:0.8;stroke:#cccccc;stroke-linejoin:miter;stroke-width:0.5;"/>
    </g>
    <g id="line2d_40">
     <path d="M 375.529063 33.457812 
L 403.529063 33.457812 
" style="fill:none;stroke:#0000ff;stroke-width:4;"/>
    </g>
    <g id="line2d_41"/>
    <g id="text_13">
     <!-- Y -->
     <g transform="translate(414.729062 38.357812)scale(0.14 -0.14)">
      <defs>
       <path d="M -13 4666 
L 666 4666 
L 1959 2747 
L 3244 4666 
L 3922 4666 
L 2272 2222 
L 2272 0 
L 1638 0 
L 1638 2222 
L -13 4666 
z
" id="DejaVuSans-59" transform="scale(0.015625)"/>
      </defs>
      <use xlink:href="#DejaVuSans-59"/>
     </g>
    </g>
   </g>
  </g>
 </g>
 <defs>
  <clipPath id="p6d57805ca4">
   <rect height="222.193875" width="409.625" x="26.255" y="15.12"/>
  </clipPath>
 </defs>
</svg>
